<mxfile host="app.diagrams.net" modified="2024-06-07T08:43:40.140Z" agent="Mozilla/5.0 (Windows NT 10.0; Win64; x64) AppleWebKit/537.36 (KHTML, like Gecko) Chrome/125.0.0.0 Safari/537.36 Edg/125.0.0.0" etag="JwLlQdaZ_y-Jyre2herx" version="24.5.1" type="github" pages="4">
  <diagram name="v0" id="tUK1e1Y2FI6m3mknLEIn">
    <mxGraphModel dx="2099" dy="2340" grid="1" gridSize="10" guides="1" tooltips="1" connect="1" arrows="1" fold="1" page="1" pageScale="1" pageWidth="1169" pageHeight="827" math="0" shadow="0">
      <root>
        <mxCell id="6nE7W45JQlqCYRWxNlfK-0" />
        <mxCell id="6nE7W45JQlqCYRWxNlfK-1" parent="6nE7W45JQlqCYRWxNlfK-0" />
        <mxCell id="JMRRjU4FPU76ZOS7B0I3-24" value="" style="group" parent="6nE7W45JQlqCYRWxNlfK-1" vertex="1" connectable="0">
          <mxGeometry x="-1154" y="-1560" width="1140" height="660" as="geometry" />
        </mxCell>
        <mxCell id="JMRRjU4FPU76ZOS7B0I3-4" value="" style="group;movable=1;resizable=1;rotatable=1;deletable=1;editable=1;locked=0;connectable=1;" parent="JMRRjU4FPU76ZOS7B0I3-24" vertex="1" connectable="0">
          <mxGeometry width="1140" height="660" as="geometry" />
        </mxCell>
        <mxCell id="6nE7W45JQlqCYRWxNlfK-7" value="AWS Account" style="points=[[0,0],[0.25,0],[0.5,0],[0.75,0],[1,0],[1,0.25],[1,0.5],[1,0.75],[1,1],[0.75,1],[0.5,1],[0.25,1],[0,1],[0,0.75],[0,0.5],[0,0.25]];outlineConnect=0;gradientColor=none;html=1;whiteSpace=wrap;fontSize=12;fontStyle=0;container=1;pointerEvents=0;collapsible=0;recursiveResize=0;shape=mxgraph.aws4.group;grIcon=mxgraph.aws4.group_account;strokeColor=#CD2264;fillColor=none;verticalAlign=top;align=left;spacingLeft=30;fontColor=#CD2264;dashed=0;movable=1;resizable=1;rotatable=1;deletable=1;editable=1;locked=0;connectable=1;" parent="JMRRjU4FPU76ZOS7B0I3-4" vertex="1">
          <mxGeometry width="1140" height="660" as="geometry" />
        </mxCell>
        <mxCell id="6nE7W45JQlqCYRWxNlfK-3" value="Region" style="sketch=0;outlineConnect=0;gradientColor=none;html=1;whiteSpace=wrap;fontSize=12;fontStyle=0;shape=mxgraph.aws4.group;grIcon=mxgraph.aws4.group_region;strokeColor=#C4D5DB;fillColor=none;verticalAlign=top;align=left;spacingLeft=30;fontColor=#879196;dashed=1;movable=1;resizable=1;rotatable=1;deletable=1;editable=1;locked=0;connectable=1;strokeWidth=2;" parent="6nE7W45JQlqCYRWxNlfK-7" vertex="1">
          <mxGeometry x="20" y="40" width="1100" height="600" as="geometry" />
        </mxCell>
        <mxCell id="6nE7W45JQlqCYRWxNlfK-4" value="Availability zone" style="sketch=0;outlineConnect=0;gradientColor=none;html=1;whiteSpace=wrap;fontSize=12;fontStyle=0;shape=mxgraph.aws4.group;grIcon=mxgraph.aws4.group_availability_zone;strokeColor=#C4D5DB;fillColor=none;verticalAlign=top;align=left;spacingLeft=30;fontColor=#545B64;dashed=1;movable=1;resizable=1;rotatable=1;deletable=1;editable=1;locked=0;connectable=1;strokeWidth=2;" parent="6nE7W45JQlqCYRWxNlfK-7" vertex="1">
          <mxGeometry x="40" y="80" width="300" height="530" as="geometry" />
        </mxCell>
        <mxCell id="6nE7W45JQlqCYRWxNlfK-5" value="Availability zone" style="sketch=0;outlineConnect=0;gradientColor=none;html=1;whiteSpace=wrap;fontSize=12;fontStyle=0;shape=mxgraph.aws4.group;grIcon=mxgraph.aws4.group_availability_zone;strokeColor=#C4D5DB;fillColor=none;verticalAlign=top;align=left;spacingLeft=30;fontColor=#545B64;dashed=1;movable=1;resizable=1;rotatable=1;deletable=1;editable=1;locked=0;connectable=1;strokeWidth=2;" parent="6nE7W45JQlqCYRWxNlfK-7" vertex="1">
          <mxGeometry x="425" y="80" width="300" height="530" as="geometry" />
        </mxCell>
        <mxCell id="6nE7W45JQlqCYRWxNlfK-6" value="Availability zone" style="sketch=0;outlineConnect=0;gradientColor=none;html=1;whiteSpace=wrap;fontSize=12;fontStyle=0;shape=mxgraph.aws4.group;grIcon=mxgraph.aws4.group_availability_zone;strokeColor=#C4D5DB;fillColor=none;verticalAlign=top;align=left;spacingLeft=30;fontColor=#545B64;dashed=1;movable=1;resizable=1;rotatable=1;deletable=1;editable=1;locked=0;connectable=1;strokeWidth=2;" parent="6nE7W45JQlqCYRWxNlfK-7" vertex="1">
          <mxGeometry x="801" y="80" width="300" height="530" as="geometry" />
        </mxCell>
        <mxCell id="JMRRjU4FPU76ZOS7B0I3-2" value="VPC" style="points=[[0,0],[0.25,0],[0.5,0],[0.75,0],[1,0],[1,0.25],[1,0.5],[1,0.75],[1,1],[0.75,1],[0.5,1],[0.25,1],[0,1],[0,0.75],[0,0.5],[0,0.25]];outlineConnect=0;gradientColor=none;html=1;whiteSpace=wrap;fontSize=12;fontStyle=0;container=0;pointerEvents=0;collapsible=0;recursiveResize=0;shape=mxgraph.aws4.group;grIcon=mxgraph.aws4.group_vpc2;strokeColor=#8C4FFF;fillColor=none;verticalAlign=top;align=left;spacingLeft=30;fontColor=#AAB7B8;dashed=0;movable=1;resizable=1;rotatable=1;deletable=1;editable=1;locked=0;connectable=1;" parent="JMRRjU4FPU76ZOS7B0I3-4" vertex="1">
          <mxGeometry x="50" y="120" width="1030" height="430" as="geometry" />
        </mxCell>
        <mxCell id="HyY0L9RjLi9gdqaSKDKF-1" value="&lt;font style=&quot;font-size: 8px;&quot;&gt;IGW&lt;/font&gt;" style="sketch=0;outlineConnect=0;fontColor=#232F3E;gradientColor=none;fillColor=#8C4FFF;strokeColor=none;dashed=0;verticalLabelPosition=bottom;verticalAlign=top;align=center;html=1;fontSize=12;fontStyle=0;aspect=fixed;pointerEvents=1;shape=mxgraph.aws4.internet_gateway;" parent="JMRRjU4FPU76ZOS7B0I3-4" vertex="1">
          <mxGeometry x="553" y="100" width="34" height="34" as="geometry" />
        </mxCell>
        <mxCell id="MXS1rHJgzqEgGzLRW3Zv-0" value="Network firewall" style="sketch=0;points=[[0,0,0],[0.25,0,0],[0.5,0,0],[0.75,0,0],[1,0,0],[0,1,0],[0.25,1,0],[0.5,1,0],[0.75,1,0],[1,1,0],[0,0.25,0],[0,0.5,0],[0,0.75,0],[1,0.25,0],[1,0.5,0],[1,0.75,0]];outlineConnect=0;fontColor=#232F3E;fillColor=#DD344C;strokeColor=#ffffff;dashed=0;verticalLabelPosition=bottom;verticalAlign=top;align=center;html=1;fontSize=12;fontStyle=0;aspect=fixed;shape=mxgraph.aws4.resourceIcon;resIcon=mxgraph.aws4.network_firewall;" parent="JMRRjU4FPU76ZOS7B0I3-4" vertex="1">
          <mxGeometry x="224" y="96" width="42" height="42" as="geometry" />
        </mxCell>
        <mxCell id="JMRRjU4FPU76ZOS7B0I3-11" value="" style="group;movable=1;resizable=1;rotatable=1;deletable=1;editable=1;locked=0;connectable=1;" parent="JMRRjU4FPU76ZOS7B0I3-24" vertex="1" connectable="0">
          <mxGeometry x="110" y="210" width="150" height="310" as="geometry" />
        </mxCell>
        <mxCell id="JMRRjU4FPU76ZOS7B0I3-6" value="N&lt;span style=&quot;background-color: initial;&quot;&gt;ACL&lt;/span&gt;" style="shape=mxgraph.ibm.box;prType=subnet;fontStyle=0;verticalAlign=top;align=left;spacingLeft=32;spacingTop=4;fillColor=none;rounded=0;whiteSpace=wrap;html=1;strokeColor=#000000;strokeWidth=1;container=1;spacing=-4;collapsible=0;expand=0;recursiveResize=0;dashed=1;movable=1;resizable=1;rotatable=1;deletable=1;editable=1;locked=0;connectable=1;" parent="JMRRjU4FPU76ZOS7B0I3-11" vertex="1">
          <mxGeometry width="150" height="151.21951219512192" as="geometry" />
        </mxCell>
        <mxCell id="JMRRjU4FPU76ZOS7B0I3-3" value="Public subnet" style="points=[[0,0],[0.25,0],[0.5,0],[0.75,0],[1,0],[1,0.25],[1,0.5],[1,0.75],[1,1],[0.75,1],[0.5,1],[0.25,1],[0,1],[0,0.75],[0,0.5],[0,0.25]];outlineConnect=0;gradientColor=none;html=1;whiteSpace=wrap;fontSize=12;fontStyle=0;container=1;pointerEvents=0;collapsible=0;recursiveResize=0;shape=mxgraph.aws4.group;grIcon=mxgraph.aws4.group_security_group;grStroke=0;strokeColor=#7AA116;fillColor=#F2F6E8;verticalAlign=top;align=left;spacingLeft=30;fontColor=#248814;dashed=0;movable=1;resizable=1;rotatable=1;deletable=1;editable=1;locked=0;connectable=1;" parent="JMRRjU4FPU76ZOS7B0I3-6" vertex="1">
          <mxGeometry x="7.5" y="22.68292682926829" width="135" height="120.97560975609754" as="geometry" />
        </mxCell>
        <mxCell id="JMRRjU4FPU76ZOS7B0I3-10" value="" style="group;movable=1;resizable=1;rotatable=1;deletable=1;editable=1;locked=0;connectable=1;" parent="JMRRjU4FPU76ZOS7B0I3-11" vertex="1" connectable="0">
          <mxGeometry y="158.78048780487802" width="150" height="151.21951219512192" as="geometry" />
        </mxCell>
        <mxCell id="JMRRjU4FPU76ZOS7B0I3-7" value="NACL" style="shape=mxgraph.ibm.box;prType=subnet;fontStyle=0;verticalAlign=top;align=left;spacingLeft=32;spacingTop=4;fillColor=none;rounded=0;whiteSpace=wrap;html=1;strokeColor=#000000;strokeWidth=1;container=0;spacing=-4;collapsible=0;expand=0;recursiveResize=0;dashed=1;movable=1;resizable=1;rotatable=1;deletable=1;editable=1;locked=0;connectable=1;" parent="JMRRjU4FPU76ZOS7B0I3-10" vertex="1">
          <mxGeometry width="150" height="151.21951219512192" as="geometry" />
        </mxCell>
        <mxCell id="JMRRjU4FPU76ZOS7B0I3-9" value="Private subnet" style="points=[[0,0],[0.25,0],[0.5,0],[0.75,0],[1,0],[1,0.25],[1,0.5],[1,0.75],[1,1],[0.75,1],[0.5,1],[0.25,1],[0,1],[0,0.75],[0,0.5],[0,0.25]];outlineConnect=0;gradientColor=none;html=1;whiteSpace=wrap;fontSize=12;fontStyle=0;container=1;pointerEvents=0;collapsible=0;recursiveResize=0;shape=mxgraph.aws4.group;grIcon=mxgraph.aws4.group_security_group;grStroke=0;strokeColor=#00A4A6;fillColor=#E6F6F7;verticalAlign=top;align=left;spacingLeft=30;fontColor=#147EBA;dashed=0;movable=1;resizable=1;rotatable=1;deletable=1;editable=1;locked=0;connectable=1;" parent="JMRRjU4FPU76ZOS7B0I3-10" vertex="1">
          <mxGeometry x="7.5" y="22.68292682926829" width="135" height="120.97560975609754" as="geometry" />
        </mxCell>
        <mxCell id="JMRRjU4FPU76ZOS7B0I3-12" value="" style="group;movable=1;resizable=1;rotatable=1;deletable=1;editable=1;locked=0;connectable=1;" parent="JMRRjU4FPU76ZOS7B0I3-24" vertex="1" connectable="0">
          <mxGeometry x="860" y="210" width="150" height="310" as="geometry" />
        </mxCell>
        <mxCell id="JMRRjU4FPU76ZOS7B0I3-13" value="N&lt;span style=&quot;background-color: initial;&quot;&gt;ACL&lt;/span&gt;" style="shape=mxgraph.ibm.box;prType=subnet;fontStyle=0;verticalAlign=top;align=left;spacingLeft=32;spacingTop=4;fillColor=none;rounded=0;whiteSpace=wrap;html=1;strokeColor=#000000;strokeWidth=1;container=1;spacing=-4;collapsible=0;expand=0;recursiveResize=0;dashed=1;movable=1;resizable=1;rotatable=1;deletable=1;editable=1;locked=0;connectable=1;" parent="JMRRjU4FPU76ZOS7B0I3-12" vertex="1">
          <mxGeometry width="150" height="151.21951219512192" as="geometry" />
        </mxCell>
        <mxCell id="JMRRjU4FPU76ZOS7B0I3-14" value="Public subnet" style="points=[[0,0],[0.25,0],[0.5,0],[0.75,0],[1,0],[1,0.25],[1,0.5],[1,0.75],[1,1],[0.75,1],[0.5,1],[0.25,1],[0,1],[0,0.75],[0,0.5],[0,0.25]];outlineConnect=0;gradientColor=none;html=1;whiteSpace=wrap;fontSize=12;fontStyle=0;container=1;pointerEvents=0;collapsible=0;recursiveResize=0;shape=mxgraph.aws4.group;grIcon=mxgraph.aws4.group_security_group;grStroke=0;strokeColor=#7AA116;fillColor=#F2F6E8;verticalAlign=top;align=left;spacingLeft=30;fontColor=#248814;dashed=0;movable=1;resizable=1;rotatable=1;deletable=1;editable=1;locked=0;connectable=1;" parent="JMRRjU4FPU76ZOS7B0I3-13" vertex="1">
          <mxGeometry x="7.5" y="22.68292682926829" width="135" height="120.97560975609754" as="geometry" />
        </mxCell>
        <mxCell id="JMRRjU4FPU76ZOS7B0I3-15" value="" style="group;movable=1;resizable=1;rotatable=1;deletable=1;editable=1;locked=0;connectable=1;" parent="JMRRjU4FPU76ZOS7B0I3-12" vertex="1" connectable="0">
          <mxGeometry y="158.78048780487802" width="150" height="151.21951219512192" as="geometry" />
        </mxCell>
        <mxCell id="JMRRjU4FPU76ZOS7B0I3-16" value="NACL" style="shape=mxgraph.ibm.box;prType=subnet;fontStyle=0;verticalAlign=top;align=left;spacingLeft=32;spacingTop=4;fillColor=none;rounded=0;whiteSpace=wrap;html=1;strokeColor=#000000;strokeWidth=1;container=0;spacing=-4;collapsible=0;expand=0;recursiveResize=0;dashed=1;movable=1;resizable=1;rotatable=1;deletable=1;editable=1;locked=0;connectable=1;" parent="JMRRjU4FPU76ZOS7B0I3-15" vertex="1">
          <mxGeometry width="150" height="151.21951219512192" as="geometry" />
        </mxCell>
        <mxCell id="JMRRjU4FPU76ZOS7B0I3-17" value="Private subnet" style="points=[[0,0],[0.25,0],[0.5,0],[0.75,0],[1,0],[1,0.25],[1,0.5],[1,0.75],[1,1],[0.75,1],[0.5,1],[0.25,1],[0,1],[0,0.75],[0,0.5],[0,0.25]];outlineConnect=0;gradientColor=none;html=1;whiteSpace=wrap;fontSize=12;fontStyle=0;container=1;pointerEvents=0;collapsible=0;recursiveResize=0;shape=mxgraph.aws4.group;grIcon=mxgraph.aws4.group_security_group;grStroke=0;strokeColor=#00A4A6;fillColor=#E6F6F7;verticalAlign=top;align=left;spacingLeft=30;fontColor=#147EBA;dashed=0;movable=1;resizable=1;rotatable=1;deletable=1;editable=1;locked=0;connectable=1;" parent="JMRRjU4FPU76ZOS7B0I3-15" vertex="1">
          <mxGeometry x="7.5" y="22.68292682926829" width="135" height="120.97560975609754" as="geometry" />
        </mxCell>
        <mxCell id="JMRRjU4FPU76ZOS7B0I3-18" value="" style="group;movable=1;resizable=1;rotatable=1;deletable=1;editable=1;locked=0;connectable=1;" parent="JMRRjU4FPU76ZOS7B0I3-24" vertex="1" connectable="0">
          <mxGeometry x="496" y="210" width="150" height="310" as="geometry" />
        </mxCell>
        <mxCell id="JMRRjU4FPU76ZOS7B0I3-19" value="N&lt;span style=&quot;background-color: initial;&quot;&gt;ACL&lt;/span&gt;" style="shape=mxgraph.ibm.box;prType=subnet;fontStyle=0;verticalAlign=top;align=left;spacingLeft=32;spacingTop=4;fillColor=none;rounded=0;whiteSpace=wrap;html=1;strokeColor=#000000;strokeWidth=1;container=1;spacing=-4;collapsible=0;expand=0;recursiveResize=0;dashed=1;movable=1;resizable=1;rotatable=1;deletable=1;editable=1;locked=0;connectable=1;" parent="JMRRjU4FPU76ZOS7B0I3-18" vertex="1">
          <mxGeometry width="150" height="151.21951219512192" as="geometry" />
        </mxCell>
        <mxCell id="JMRRjU4FPU76ZOS7B0I3-20" value="Public subnet" style="points=[[0,0],[0.25,0],[0.5,0],[0.75,0],[1,0],[1,0.25],[1,0.5],[1,0.75],[1,1],[0.75,1],[0.5,1],[0.25,1],[0,1],[0,0.75],[0,0.5],[0,0.25]];outlineConnect=0;gradientColor=none;html=1;whiteSpace=wrap;fontSize=12;fontStyle=0;container=1;pointerEvents=0;collapsible=0;recursiveResize=0;shape=mxgraph.aws4.group;grIcon=mxgraph.aws4.group_security_group;grStroke=0;strokeColor=#7AA116;fillColor=#F2F6E8;verticalAlign=top;align=left;spacingLeft=30;fontColor=#248814;dashed=0;movable=1;resizable=1;rotatable=1;deletable=1;editable=1;locked=0;connectable=1;" parent="JMRRjU4FPU76ZOS7B0I3-19" vertex="1">
          <mxGeometry x="7.5" y="22.68292682926829" width="135" height="120.97560975609754" as="geometry" />
        </mxCell>
        <mxCell id="JMRRjU4FPU76ZOS7B0I3-21" value="" style="group;movable=1;resizable=1;rotatable=1;deletable=1;editable=1;locked=0;connectable=1;" parent="JMRRjU4FPU76ZOS7B0I3-18" vertex="1" connectable="0">
          <mxGeometry y="158.78048780487802" width="150" height="151.21951219512192" as="geometry" />
        </mxCell>
        <mxCell id="JMRRjU4FPU76ZOS7B0I3-22" value="NACL" style="shape=mxgraph.ibm.box;prType=subnet;fontStyle=0;verticalAlign=top;align=left;spacingLeft=32;spacingTop=4;fillColor=none;rounded=0;whiteSpace=wrap;html=1;strokeColor=#000000;strokeWidth=1;container=0;spacing=-4;collapsible=0;expand=0;recursiveResize=0;dashed=1;movable=1;resizable=1;rotatable=1;deletable=1;editable=1;locked=0;connectable=1;" parent="JMRRjU4FPU76ZOS7B0I3-21" vertex="1">
          <mxGeometry width="150" height="151.21951219512192" as="geometry" />
        </mxCell>
        <mxCell id="JMRRjU4FPU76ZOS7B0I3-23" value="Private subnet" style="points=[[0,0],[0.25,0],[0.5,0],[0.75,0],[1,0],[1,0.25],[1,0.5],[1,0.75],[1,1],[0.75,1],[0.5,1],[0.25,1],[0,1],[0,0.75],[0,0.5],[0,0.25]];outlineConnect=0;gradientColor=none;html=1;whiteSpace=wrap;fontSize=12;fontStyle=0;container=1;pointerEvents=0;collapsible=0;recursiveResize=0;shape=mxgraph.aws4.group;grIcon=mxgraph.aws4.group_security_group;grStroke=0;strokeColor=#00A4A6;fillColor=#E6F6F7;verticalAlign=top;align=left;spacingLeft=30;fontColor=#147EBA;dashed=0;movable=1;resizable=1;rotatable=1;deletable=1;editable=1;locked=0;connectable=1;" parent="JMRRjU4FPU76ZOS7B0I3-21" vertex="1">
          <mxGeometry x="7.5" y="22.68292682926829" width="135" height="120.97560975609754" as="geometry" />
        </mxCell>
        <mxCell id="HyY0L9RjLi9gdqaSKDKF-0" value="&lt;font style=&quot;font-size: 8px;&quot;&gt;NAT GW&lt;/font&gt;" style="sketch=0;outlineConnect=0;fontColor=#232F3E;gradientColor=none;fillColor=#8C4FFF;strokeColor=none;dashed=0;verticalLabelPosition=bottom;verticalAlign=top;align=center;html=1;fontSize=12;fontStyle=0;aspect=fixed;pointerEvents=1;shape=mxgraph.aws4.nat_gateway;" parent="JMRRjU4FPU76ZOS7B0I3-18" vertex="1">
          <mxGeometry x="64" y="50" width="20" height="20" as="geometry" />
        </mxCell>
        <mxCell id="DZnagVYZy32rgob6Cait-5" value="" style="group" parent="6nE7W45JQlqCYRWxNlfK-1" vertex="1" connectable="0">
          <mxGeometry x="-970" y="-1320" width="65" height="70" as="geometry" />
        </mxCell>
        <mxCell id="DZnagVYZy32rgob6Cait-1" value="" style="rounded=1;arcSize=10;dashed=1;strokeColor=#ff0000;fillColor=none;gradientColor=none;dashPattern=8 4;strokeWidth=2;" parent="DZnagVYZy32rgob6Cait-5" vertex="1">
          <mxGeometry x="-1" y="24" width="50" height="40" as="geometry" />
        </mxCell>
        <mxCell id="DZnagVYZy32rgob6Cait-4" value="&lt;font style=&quot;font-size: 8px;&quot;&gt;SG&lt;/font&gt;" style="text;html=1;align=center;verticalAlign=middle;resizable=0;points=[];autosize=1;strokeColor=none;fillColor=none;fontStyle=1;fontColor=#F20000;" parent="DZnagVYZy32rgob6Cait-5" vertex="1">
          <mxGeometry x="25" width="40" height="30" as="geometry" />
        </mxCell>
        <mxCell id="DZnagVYZy32rgob6Cait-7" value="" style="group" parent="DZnagVYZy32rgob6Cait-5" vertex="1" connectable="0">
          <mxGeometry x="5" y="31" width="40" height="39" as="geometry" />
        </mxCell>
        <mxCell id="DZnagVYZy32rgob6Cait-0" value="" style="outlineConnect=0;dashed=0;verticalLabelPosition=bottom;verticalAlign=top;align=center;html=1;shape=mxgraph.aws3.elastic_network_interface;fillColor=#F58534;gradientColor=none;" parent="DZnagVYZy32rgob6Cait-7" vertex="1">
          <mxGeometry x="10" width="20" height="20" as="geometry" />
        </mxCell>
        <mxCell id="DZnagVYZy32rgob6Cait-6" value="&lt;font style=&quot;font-size: 8px;&quot;&gt;ENI&lt;/font&gt;" style="text;html=1;align=center;verticalAlign=middle;resizable=0;points=[];autosize=1;strokeColor=none;fillColor=none;" parent="DZnagVYZy32rgob6Cait-7" vertex="1">
          <mxGeometry y="9" width="40" height="30" as="geometry" />
        </mxCell>
      </root>
    </mxGraphModel>
  </diagram>
  <diagram id="cw1k1msWzho_-cpUtX9R" name="Page-2">
    <mxGraphModel dx="2558" dy="1372" grid="1" gridSize="10" guides="1" tooltips="1" connect="1" arrows="1" fold="1" page="1" pageScale="1" pageWidth="1169" pageHeight="827" math="0" shadow="0">
      <root>
        <mxCell id="0" />
        <mxCell id="1" parent="0" />
        <mxCell id="QedY5NbV7k0OPBp1XgHU-1" value="" style="group" vertex="1" connectable="0" parent="1">
          <mxGeometry x="380" y="360" width="1140" height="660" as="geometry" />
        </mxCell>
        <mxCell id="QedY5NbV7k0OPBp1XgHU-2" value="" style="group;movable=1;resizable=1;rotatable=1;deletable=1;editable=1;locked=0;connectable=1;" vertex="1" connectable="0" parent="QedY5NbV7k0OPBp1XgHU-1">
          <mxGeometry width="1140" height="660" as="geometry" />
        </mxCell>
        <mxCell id="QedY5NbV7k0OPBp1XgHU-3" value="AWS Account" style="points=[[0,0],[0.25,0],[0.5,0],[0.75,0],[1,0],[1,0.25],[1,0.5],[1,0.75],[1,1],[0.75,1],[0.5,1],[0.25,1],[0,1],[0,0.75],[0,0.5],[0,0.25]];outlineConnect=0;gradientColor=none;html=1;whiteSpace=wrap;fontSize=12;fontStyle=0;container=1;pointerEvents=0;collapsible=0;recursiveResize=0;shape=mxgraph.aws4.group;grIcon=mxgraph.aws4.group_account;strokeColor=#CD2264;fillColor=none;verticalAlign=top;align=left;spacingLeft=30;fontColor=#CD2264;dashed=0;movable=1;resizable=1;rotatable=1;deletable=1;editable=1;locked=0;connectable=1;" vertex="1" parent="QedY5NbV7k0OPBp1XgHU-2">
          <mxGeometry width="1140" height="660" as="geometry" />
        </mxCell>
        <mxCell id="QedY5NbV7k0OPBp1XgHU-4" value="Region" style="sketch=0;outlineConnect=0;gradientColor=none;html=1;whiteSpace=wrap;fontSize=12;fontStyle=0;shape=mxgraph.aws4.group;grIcon=mxgraph.aws4.group_region;strokeColor=#C4D5DB;fillColor=none;verticalAlign=top;align=left;spacingLeft=30;fontColor=#879196;dashed=1;movable=1;resizable=1;rotatable=1;deletable=1;editable=1;locked=0;connectable=1;strokeWidth=2;" vertex="1" parent="QedY5NbV7k0OPBp1XgHU-3">
          <mxGeometry x="20" y="40" width="1100" height="600" as="geometry" />
        </mxCell>
        <mxCell id="QedY5NbV7k0OPBp1XgHU-5" value="Availability zone" style="sketch=0;outlineConnect=0;gradientColor=none;html=1;whiteSpace=wrap;fontSize=12;fontStyle=0;shape=mxgraph.aws4.group;grIcon=mxgraph.aws4.group_availability_zone;strokeColor=#C4D5DB;fillColor=none;verticalAlign=top;align=left;spacingLeft=30;fontColor=#545B64;dashed=1;movable=1;resizable=1;rotatable=1;deletable=1;editable=1;locked=0;connectable=1;strokeWidth=2;" vertex="1" parent="QedY5NbV7k0OPBp1XgHU-3">
          <mxGeometry x="40" y="80" width="300" height="530" as="geometry" />
        </mxCell>
        <mxCell id="QedY5NbV7k0OPBp1XgHU-6" value="Availability zone" style="sketch=0;outlineConnect=0;gradientColor=none;html=1;whiteSpace=wrap;fontSize=12;fontStyle=0;shape=mxgraph.aws4.group;grIcon=mxgraph.aws4.group_availability_zone;strokeColor=#C4D5DB;fillColor=none;verticalAlign=top;align=left;spacingLeft=30;fontColor=#545B64;dashed=1;movable=1;resizable=1;rotatable=1;deletable=1;editable=1;locked=0;connectable=1;strokeWidth=2;" vertex="1" parent="QedY5NbV7k0OPBp1XgHU-3">
          <mxGeometry x="425" y="80" width="300" height="530" as="geometry" />
        </mxCell>
        <mxCell id="QedY5NbV7k0OPBp1XgHU-7" value="Availability zone" style="sketch=0;outlineConnect=0;gradientColor=none;html=1;whiteSpace=wrap;fontSize=12;fontStyle=0;shape=mxgraph.aws4.group;grIcon=mxgraph.aws4.group_availability_zone;strokeColor=#C4D5DB;fillColor=none;verticalAlign=top;align=left;spacingLeft=30;fontColor=#545B64;dashed=1;movable=1;resizable=1;rotatable=1;deletable=1;editable=1;locked=0;connectable=1;strokeWidth=2;" vertex="1" parent="QedY5NbV7k0OPBp1XgHU-3">
          <mxGeometry x="801" y="80" width="300" height="530" as="geometry" />
        </mxCell>
        <mxCell id="QedY5NbV7k0OPBp1XgHU-8" value="VPC" style="points=[[0,0],[0.25,0],[0.5,0],[0.75,0],[1,0],[1,0.25],[1,0.5],[1,0.75],[1,1],[0.75,1],[0.5,1],[0.25,1],[0,1],[0,0.75],[0,0.5],[0,0.25]];outlineConnect=0;gradientColor=none;html=1;whiteSpace=wrap;fontSize=12;fontStyle=0;container=0;pointerEvents=0;collapsible=0;recursiveResize=0;shape=mxgraph.aws4.group;grIcon=mxgraph.aws4.group_vpc2;strokeColor=#8C4FFF;fillColor=none;verticalAlign=top;align=left;spacingLeft=30;fontColor=#AAB7B8;dashed=0;movable=1;resizable=1;rotatable=1;deletable=1;editable=1;locked=0;connectable=1;" vertex="1" parent="QedY5NbV7k0OPBp1XgHU-2">
          <mxGeometry x="50" y="120" width="1030" height="430" as="geometry" />
        </mxCell>
        <mxCell id="QedY5NbV7k0OPBp1XgHU-9" value="&lt;font style=&quot;font-size: 8px;&quot;&gt;IGW&lt;/font&gt;" style="sketch=0;outlineConnect=0;fontColor=#232F3E;gradientColor=none;fillColor=#8C4FFF;strokeColor=none;dashed=0;verticalLabelPosition=bottom;verticalAlign=top;align=center;html=1;fontSize=12;fontStyle=0;aspect=fixed;pointerEvents=1;shape=mxgraph.aws4.internet_gateway;" vertex="1" parent="QedY5NbV7k0OPBp1XgHU-2">
          <mxGeometry x="553" y="100" width="34" height="34" as="geometry" />
        </mxCell>
        <mxCell id="QedY5NbV7k0OPBp1XgHU-10" value="Private subnet" style="points=[[0,0],[0.25,0],[0.5,0],[0.75,0],[1,0],[1,0.25],[1,0.5],[1,0.75],[1,1],[0.75,1],[0.5,1],[0.25,1],[0,1],[0,0.75],[0,0.5],[0,0.25]];outlineConnect=0;gradientColor=none;html=1;whiteSpace=wrap;fontSize=12;fontStyle=0;container=1;pointerEvents=0;collapsible=0;recursiveResize=0;shape=mxgraph.aws4.group;grIcon=mxgraph.aws4.group_security_group;grStroke=0;strokeColor=#00A4A6;fillColor=#E6F6F7;verticalAlign=top;align=left;spacingLeft=30;fontColor=#147EBA;dashed=0;movable=1;resizable=1;rotatable=1;deletable=1;editable=1;locked=0;connectable=1;" vertex="1" parent="QedY5NbV7k0OPBp1XgHU-2">
          <mxGeometry x="73.5" y="160" width="243.00000000000003" height="248" as="geometry" />
        </mxCell>
        <mxCell id="QedY5NbV7k0OPBp1XgHU-11" value="" style="group;movable=1;resizable=1;rotatable=1;deletable=1;editable=1;locked=0;connectable=1;" vertex="1" connectable="0" parent="QedY5NbV7k0OPBp1XgHU-1">
          <mxGeometry x="860" y="210" width="150" height="310" as="geometry" />
        </mxCell>
        <mxCell id="QedY5NbV7k0OPBp1XgHU-12" value="N&lt;span style=&quot;background-color: initial;&quot;&gt;ACL&lt;/span&gt;" style="shape=mxgraph.ibm.box;prType=subnet;fontStyle=0;verticalAlign=top;align=left;spacingLeft=32;spacingTop=4;fillColor=none;rounded=0;whiteSpace=wrap;html=1;strokeColor=#000000;strokeWidth=1;container=1;spacing=-4;collapsible=0;expand=0;recursiveResize=0;dashed=1;movable=1;resizable=1;rotatable=1;deletable=1;editable=1;locked=0;connectable=1;" vertex="1" parent="QedY5NbV7k0OPBp1XgHU-11">
          <mxGeometry width="150" height="151.21951219512192" as="geometry" />
        </mxCell>
        <mxCell id="QedY5NbV7k0OPBp1XgHU-13" value="Public subnet" style="points=[[0,0],[0.25,0],[0.5,0],[0.75,0],[1,0],[1,0.25],[1,0.5],[1,0.75],[1,1],[0.75,1],[0.5,1],[0.25,1],[0,1],[0,0.75],[0,0.5],[0,0.25]];outlineConnect=0;gradientColor=none;html=1;whiteSpace=wrap;fontSize=12;fontStyle=0;container=1;pointerEvents=0;collapsible=0;recursiveResize=0;shape=mxgraph.aws4.group;grIcon=mxgraph.aws4.group_security_group;grStroke=0;strokeColor=#7AA116;fillColor=#F2F6E8;verticalAlign=top;align=left;spacingLeft=30;fontColor=#248814;dashed=0;movable=1;resizable=1;rotatable=1;deletable=1;editable=1;locked=0;connectable=1;" vertex="1" parent="QedY5NbV7k0OPBp1XgHU-12">
          <mxGeometry x="7.5" y="22.68292682926829" width="135" height="120.97560975609754" as="geometry" />
        </mxCell>
        <mxCell id="QedY5NbV7k0OPBp1XgHU-14" value="" style="group;movable=1;resizable=1;rotatable=1;deletable=1;editable=1;locked=0;connectable=1;" vertex="1" connectable="0" parent="QedY5NbV7k0OPBp1XgHU-11">
          <mxGeometry y="158.78048780487802" width="150" height="151.21951219512192" as="geometry" />
        </mxCell>
        <mxCell id="QedY5NbV7k0OPBp1XgHU-15" value="NACL" style="shape=mxgraph.ibm.box;prType=subnet;fontStyle=0;verticalAlign=top;align=left;spacingLeft=32;spacingTop=4;fillColor=none;rounded=0;whiteSpace=wrap;html=1;strokeColor=#000000;strokeWidth=1;container=0;spacing=-4;collapsible=0;expand=0;recursiveResize=0;dashed=1;movable=1;resizable=1;rotatable=1;deletable=1;editable=1;locked=0;connectable=1;" vertex="1" parent="QedY5NbV7k0OPBp1XgHU-14">
          <mxGeometry width="150" height="151.21951219512192" as="geometry" />
        </mxCell>
        <mxCell id="QedY5NbV7k0OPBp1XgHU-16" value="Private subnet" style="points=[[0,0],[0.25,0],[0.5,0],[0.75,0],[1,0],[1,0.25],[1,0.5],[1,0.75],[1,1],[0.75,1],[0.5,1],[0.25,1],[0,1],[0,0.75],[0,0.5],[0,0.25]];outlineConnect=0;gradientColor=none;html=1;whiteSpace=wrap;fontSize=12;fontStyle=0;container=1;pointerEvents=0;collapsible=0;recursiveResize=0;shape=mxgraph.aws4.group;grIcon=mxgraph.aws4.group_security_group;grStroke=0;strokeColor=#00A4A6;fillColor=#E6F6F7;verticalAlign=top;align=left;spacingLeft=30;fontColor=#147EBA;dashed=0;movable=1;resizable=1;rotatable=1;deletable=1;editable=1;locked=0;connectable=1;" vertex="1" parent="QedY5NbV7k0OPBp1XgHU-14">
          <mxGeometry x="7.5" y="22.68292682926829" width="135" height="120.97560975609754" as="geometry" />
        </mxCell>
        <mxCell id="QedY5NbV7k0OPBp1XgHU-17" value="" style="group;movable=1;resizable=1;rotatable=1;deletable=1;editable=1;locked=0;connectable=1;" vertex="1" connectable="0" parent="QedY5NbV7k0OPBp1XgHU-1">
          <mxGeometry x="496" y="210" width="150" height="310" as="geometry" />
        </mxCell>
        <mxCell id="QedY5NbV7k0OPBp1XgHU-18" value="N&lt;span style=&quot;background-color: initial;&quot;&gt;ACL&lt;/span&gt;" style="shape=mxgraph.ibm.box;prType=subnet;fontStyle=0;verticalAlign=top;align=left;spacingLeft=32;spacingTop=4;fillColor=none;rounded=0;whiteSpace=wrap;html=1;strokeColor=#000000;strokeWidth=1;container=1;spacing=-4;collapsible=0;expand=0;recursiveResize=0;dashed=1;movable=1;resizable=1;rotatable=1;deletable=1;editable=1;locked=0;connectable=1;" vertex="1" parent="QedY5NbV7k0OPBp1XgHU-17">
          <mxGeometry width="150" height="151.21951219512192" as="geometry" />
        </mxCell>
        <mxCell id="QedY5NbV7k0OPBp1XgHU-19" value="Public subnet" style="points=[[0,0],[0.25,0],[0.5,0],[0.75,0],[1,0],[1,0.25],[1,0.5],[1,0.75],[1,1],[0.75,1],[0.5,1],[0.25,1],[0,1],[0,0.75],[0,0.5],[0,0.25]];outlineConnect=0;gradientColor=none;html=1;whiteSpace=wrap;fontSize=12;fontStyle=0;container=1;pointerEvents=0;collapsible=0;recursiveResize=0;shape=mxgraph.aws4.group;grIcon=mxgraph.aws4.group_security_group;grStroke=0;strokeColor=#7AA116;fillColor=#F2F6E8;verticalAlign=top;align=left;spacingLeft=30;fontColor=#248814;dashed=0;movable=1;resizable=1;rotatable=1;deletable=1;editable=1;locked=0;connectable=1;" vertex="1" parent="QedY5NbV7k0OPBp1XgHU-18">
          <mxGeometry x="7.5" y="22.68292682926829" width="135" height="120.97560975609754" as="geometry" />
        </mxCell>
        <mxCell id="QedY5NbV7k0OPBp1XgHU-20" value="" style="group;movable=1;resizable=1;rotatable=1;deletable=1;editable=1;locked=0;connectable=1;" vertex="1" connectable="0" parent="QedY5NbV7k0OPBp1XgHU-17">
          <mxGeometry y="158.78048780487802" width="150" height="151.21951219512192" as="geometry" />
        </mxCell>
        <mxCell id="QedY5NbV7k0OPBp1XgHU-21" value="NACL" style="shape=mxgraph.ibm.box;prType=subnet;fontStyle=0;verticalAlign=top;align=left;spacingLeft=32;spacingTop=4;fillColor=none;rounded=0;whiteSpace=wrap;html=1;strokeColor=#000000;strokeWidth=1;container=0;spacing=-4;collapsible=0;expand=0;recursiveResize=0;dashed=1;movable=1;resizable=1;rotatable=1;deletable=1;editable=1;locked=0;connectable=1;" vertex="1" parent="QedY5NbV7k0OPBp1XgHU-20">
          <mxGeometry width="150" height="151.21951219512192" as="geometry" />
        </mxCell>
        <mxCell id="QedY5NbV7k0OPBp1XgHU-22" value="Private subnet" style="points=[[0,0],[0.25,0],[0.5,0],[0.75,0],[1,0],[1,0.25],[1,0.5],[1,0.75],[1,1],[0.75,1],[0.5,1],[0.25,1],[0,1],[0,0.75],[0,0.5],[0,0.25]];outlineConnect=0;gradientColor=none;html=1;whiteSpace=wrap;fontSize=12;fontStyle=0;container=1;pointerEvents=0;collapsible=0;recursiveResize=0;shape=mxgraph.aws4.group;grIcon=mxgraph.aws4.group_security_group;grStroke=0;strokeColor=#00A4A6;fillColor=#E6F6F7;verticalAlign=top;align=left;spacingLeft=30;fontColor=#147EBA;dashed=0;movable=1;resizable=1;rotatable=1;deletable=1;editable=1;locked=0;connectable=1;" vertex="1" parent="QedY5NbV7k0OPBp1XgHU-20">
          <mxGeometry x="7.5" y="22.68292682926829" width="135" height="120.97560975609754" as="geometry" />
        </mxCell>
        <mxCell id="QedY5NbV7k0OPBp1XgHU-23" value="&lt;font style=&quot;font-size: 8px;&quot;&gt;NAT GW&lt;/font&gt;" style="sketch=0;outlineConnect=0;fontColor=#232F3E;gradientColor=none;fillColor=#8C4FFF;strokeColor=none;dashed=0;verticalLabelPosition=bottom;verticalAlign=top;align=center;html=1;fontSize=12;fontStyle=0;aspect=fixed;pointerEvents=1;shape=mxgraph.aws4.nat_gateway;" vertex="1" parent="QedY5NbV7k0OPBp1XgHU-17">
          <mxGeometry x="64" y="50" width="20" height="20" as="geometry" />
        </mxCell>
      </root>
    </mxGraphModel>
  </diagram>
  <diagram name="Copie de v0" id="nQCR4OffB8sK05ZV6Boe">
    <mxGraphModel dx="1700" dy="2046" grid="1" gridSize="10" guides="1" tooltips="1" connect="1" arrows="1" fold="1" page="1" pageScale="1" pageWidth="1169" pageHeight="827" math="0" shadow="0">
      <root>
        <mxCell id="o87X6tZE1NvXbQ4Zihpj-0" />
        <mxCell id="o87X6tZE1NvXbQ4Zihpj-1" parent="o87X6tZE1NvXbQ4Zihpj-0" />
        <mxCell id="o87X6tZE1NvXbQ4Zihpj-2" value="" style="group" vertex="1" connectable="0" parent="o87X6tZE1NvXbQ4Zihpj-1">
          <mxGeometry x="-1154" y="-1560" width="1140" height="660" as="geometry" />
        </mxCell>
        <mxCell id="o87X6tZE1NvXbQ4Zihpj-3" value="" style="group;movable=1;resizable=1;rotatable=1;deletable=1;editable=1;locked=0;connectable=1;" vertex="1" connectable="0" parent="o87X6tZE1NvXbQ4Zihpj-2">
          <mxGeometry width="1140" height="660" as="geometry" />
        </mxCell>
        <mxCell id="o87X6tZE1NvXbQ4Zihpj-4" value="AWS Account" style="points=[[0,0],[0.25,0],[0.5,0],[0.75,0],[1,0],[1,0.25],[1,0.5],[1,0.75],[1,1],[0.75,1],[0.5,1],[0.25,1],[0,1],[0,0.75],[0,0.5],[0,0.25]];outlineConnect=0;gradientColor=none;html=1;whiteSpace=wrap;fontSize=12;fontStyle=0;container=1;pointerEvents=0;collapsible=0;recursiveResize=0;shape=mxgraph.aws4.group;grIcon=mxgraph.aws4.group_account;strokeColor=#CD2264;fillColor=none;verticalAlign=top;align=left;spacingLeft=30;fontColor=#CD2264;dashed=0;movable=1;resizable=1;rotatable=1;deletable=1;editable=1;locked=0;connectable=1;" vertex="1" parent="o87X6tZE1NvXbQ4Zihpj-3">
          <mxGeometry width="1140" height="660" as="geometry" />
        </mxCell>
        <mxCell id="o87X6tZE1NvXbQ4Zihpj-5" value="Region" style="sketch=0;outlineConnect=0;gradientColor=none;html=1;whiteSpace=wrap;fontSize=12;fontStyle=0;shape=mxgraph.aws4.group;grIcon=mxgraph.aws4.group_region;strokeColor=#C4D5DB;fillColor=none;verticalAlign=top;align=left;spacingLeft=30;fontColor=#879196;dashed=1;movable=1;resizable=1;rotatable=1;deletable=1;editable=1;locked=0;connectable=1;strokeWidth=2;" vertex="1" parent="o87X6tZE1NvXbQ4Zihpj-4">
          <mxGeometry x="20" y="40" width="1100" height="600" as="geometry" />
        </mxCell>
        <mxCell id="o87X6tZE1NvXbQ4Zihpj-6" value="Availability zone" style="sketch=0;outlineConnect=0;gradientColor=none;html=1;whiteSpace=wrap;fontSize=12;fontStyle=0;shape=mxgraph.aws4.group;grIcon=mxgraph.aws4.group_availability_zone;strokeColor=#C4D5DB;fillColor=none;verticalAlign=top;align=left;spacingLeft=30;fontColor=#545B64;dashed=1;movable=1;resizable=1;rotatable=1;deletable=1;editable=1;locked=0;connectable=1;strokeWidth=2;" vertex="1" parent="o87X6tZE1NvXbQ4Zihpj-4">
          <mxGeometry x="40" y="80" width="300" height="530" as="geometry" />
        </mxCell>
        <mxCell id="o87X6tZE1NvXbQ4Zihpj-7" value="Availability zone" style="sketch=0;outlineConnect=0;gradientColor=none;html=1;whiteSpace=wrap;fontSize=12;fontStyle=0;shape=mxgraph.aws4.group;grIcon=mxgraph.aws4.group_availability_zone;strokeColor=#C4D5DB;fillColor=none;verticalAlign=top;align=left;spacingLeft=30;fontColor=#545B64;dashed=1;movable=1;resizable=1;rotatable=1;deletable=1;editable=1;locked=0;connectable=1;strokeWidth=2;" vertex="1" parent="o87X6tZE1NvXbQ4Zihpj-4">
          <mxGeometry x="425" y="80" width="300" height="530" as="geometry" />
        </mxCell>
        <mxCell id="o87X6tZE1NvXbQ4Zihpj-8" value="Availability zone" style="sketch=0;outlineConnect=0;gradientColor=none;html=1;whiteSpace=wrap;fontSize=12;fontStyle=0;shape=mxgraph.aws4.group;grIcon=mxgraph.aws4.group_availability_zone;strokeColor=#C4D5DB;fillColor=none;verticalAlign=top;align=left;spacingLeft=30;fontColor=#545B64;dashed=1;movable=1;resizable=1;rotatable=1;deletable=1;editable=1;locked=0;connectable=1;strokeWidth=2;" vertex="1" parent="o87X6tZE1NvXbQ4Zihpj-4">
          <mxGeometry x="801" y="80" width="300" height="530" as="geometry" />
        </mxCell>
        <mxCell id="o87X6tZE1NvXbQ4Zihpj-9" value="VPC" style="points=[[0,0],[0.25,0],[0.5,0],[0.75,0],[1,0],[1,0.25],[1,0.5],[1,0.75],[1,1],[0.75,1],[0.5,1],[0.25,1],[0,1],[0,0.75],[0,0.5],[0,0.25]];outlineConnect=0;gradientColor=none;html=1;whiteSpace=wrap;fontSize=12;fontStyle=0;container=0;pointerEvents=0;collapsible=0;recursiveResize=0;shape=mxgraph.aws4.group;grIcon=mxgraph.aws4.group_vpc2;strokeColor=#8C4FFF;fillColor=none;verticalAlign=top;align=left;spacingLeft=30;fontColor=#AAB7B8;dashed=0;movable=1;resizable=1;rotatable=1;deletable=1;editable=1;locked=0;connectable=1;" vertex="1" parent="o87X6tZE1NvXbQ4Zihpj-3">
          <mxGeometry x="50" y="120" width="1030" height="430" as="geometry" />
        </mxCell>
        <mxCell id="o87X6tZE1NvXbQ4Zihpj-10" value="&lt;font style=&quot;font-size: 8px;&quot;&gt;IGW&lt;/font&gt;" style="sketch=0;outlineConnect=0;fontColor=#232F3E;gradientColor=none;fillColor=#8C4FFF;strokeColor=none;dashed=0;verticalLabelPosition=bottom;verticalAlign=top;align=center;html=1;fontSize=12;fontStyle=0;aspect=fixed;pointerEvents=1;shape=mxgraph.aws4.internet_gateway;" vertex="1" parent="o87X6tZE1NvXbQ4Zihpj-3">
          <mxGeometry x="553" y="100" width="34" height="34" as="geometry" />
        </mxCell>
        <mxCell id="o87X6tZE1NvXbQ4Zihpj-17" value="Private subnet" style="points=[[0,0],[0.25,0],[0.5,0],[0.75,0],[1,0],[1,0.25],[1,0.5],[1,0.75],[1,1],[0.75,1],[0.5,1],[0.25,1],[0,1],[0,0.75],[0,0.5],[0,0.25]];outlineConnect=0;gradientColor=none;html=1;whiteSpace=wrap;fontSize=12;fontStyle=0;container=1;pointerEvents=0;collapsible=0;recursiveResize=0;shape=mxgraph.aws4.group;grIcon=mxgraph.aws4.group_security_group;grStroke=0;strokeColor=#00A4A6;fillColor=#E6F6F7;verticalAlign=top;align=left;spacingLeft=30;fontColor=#147EBA;dashed=0;movable=1;resizable=1;rotatable=1;deletable=1;editable=1;locked=0;connectable=1;" vertex="1" parent="o87X6tZE1NvXbQ4Zihpj-3">
          <mxGeometry x="73.5" y="160" width="243.00000000000003" height="248" as="geometry" />
        </mxCell>
        <mxCell id="o87X6tZE1NvXbQ4Zihpj-18" value="" style="group;movable=1;resizable=1;rotatable=1;deletable=1;editable=1;locked=0;connectable=1;" vertex="1" connectable="0" parent="o87X6tZE1NvXbQ4Zihpj-2">
          <mxGeometry x="860" y="210" width="150" height="310" as="geometry" />
        </mxCell>
        <mxCell id="o87X6tZE1NvXbQ4Zihpj-19" value="N&lt;span style=&quot;background-color: initial;&quot;&gt;ACL&lt;/span&gt;" style="shape=mxgraph.ibm.box;prType=subnet;fontStyle=0;verticalAlign=top;align=left;spacingLeft=32;spacingTop=4;fillColor=none;rounded=0;whiteSpace=wrap;html=1;strokeColor=#000000;strokeWidth=1;container=1;spacing=-4;collapsible=0;expand=0;recursiveResize=0;dashed=1;movable=1;resizable=1;rotatable=1;deletable=1;editable=1;locked=0;connectable=1;" vertex="1" parent="o87X6tZE1NvXbQ4Zihpj-18">
          <mxGeometry width="150" height="151.21951219512192" as="geometry" />
        </mxCell>
        <mxCell id="o87X6tZE1NvXbQ4Zihpj-20" value="Public subnet" style="points=[[0,0],[0.25,0],[0.5,0],[0.75,0],[1,0],[1,0.25],[1,0.5],[1,0.75],[1,1],[0.75,1],[0.5,1],[0.25,1],[0,1],[0,0.75],[0,0.5],[0,0.25]];outlineConnect=0;gradientColor=none;html=1;whiteSpace=wrap;fontSize=12;fontStyle=0;container=1;pointerEvents=0;collapsible=0;recursiveResize=0;shape=mxgraph.aws4.group;grIcon=mxgraph.aws4.group_security_group;grStroke=0;strokeColor=#7AA116;fillColor=#F2F6E8;verticalAlign=top;align=left;spacingLeft=30;fontColor=#248814;dashed=0;movable=1;resizable=1;rotatable=1;deletable=1;editable=1;locked=0;connectable=1;" vertex="1" parent="o87X6tZE1NvXbQ4Zihpj-19">
          <mxGeometry x="7.5" y="22.68292682926829" width="135" height="120.97560975609754" as="geometry" />
        </mxCell>
        <mxCell id="o87X6tZE1NvXbQ4Zihpj-21" value="" style="group;movable=1;resizable=1;rotatable=1;deletable=1;editable=1;locked=0;connectable=1;" vertex="1" connectable="0" parent="o87X6tZE1NvXbQ4Zihpj-18">
          <mxGeometry y="158.78048780487802" width="150" height="151.21951219512192" as="geometry" />
        </mxCell>
        <mxCell id="o87X6tZE1NvXbQ4Zihpj-22" value="NACL" style="shape=mxgraph.ibm.box;prType=subnet;fontStyle=0;verticalAlign=top;align=left;spacingLeft=32;spacingTop=4;fillColor=none;rounded=0;whiteSpace=wrap;html=1;strokeColor=#000000;strokeWidth=1;container=0;spacing=-4;collapsible=0;expand=0;recursiveResize=0;dashed=1;movable=1;resizable=1;rotatable=1;deletable=1;editable=1;locked=0;connectable=1;" vertex="1" parent="o87X6tZE1NvXbQ4Zihpj-21">
          <mxGeometry width="150" height="151.21951219512192" as="geometry" />
        </mxCell>
        <mxCell id="o87X6tZE1NvXbQ4Zihpj-23" value="Private subnet" style="points=[[0,0],[0.25,0],[0.5,0],[0.75,0],[1,0],[1,0.25],[1,0.5],[1,0.75],[1,1],[0.75,1],[0.5,1],[0.25,1],[0,1],[0,0.75],[0,0.5],[0,0.25]];outlineConnect=0;gradientColor=none;html=1;whiteSpace=wrap;fontSize=12;fontStyle=0;container=1;pointerEvents=0;collapsible=0;recursiveResize=0;shape=mxgraph.aws4.group;grIcon=mxgraph.aws4.group_security_group;grStroke=0;strokeColor=#00A4A6;fillColor=#E6F6F7;verticalAlign=top;align=left;spacingLeft=30;fontColor=#147EBA;dashed=0;movable=1;resizable=1;rotatable=1;deletable=1;editable=1;locked=0;connectable=1;" vertex="1" parent="o87X6tZE1NvXbQ4Zihpj-21">
          <mxGeometry x="7.5" y="22.68292682926829" width="135" height="120.97560975609754" as="geometry" />
        </mxCell>
        <mxCell id="o87X6tZE1NvXbQ4Zihpj-24" value="" style="group;movable=1;resizable=1;rotatable=1;deletable=1;editable=1;locked=0;connectable=1;" vertex="1" connectable="0" parent="o87X6tZE1NvXbQ4Zihpj-2">
          <mxGeometry x="496" y="210" width="150" height="310" as="geometry" />
        </mxCell>
        <mxCell id="o87X6tZE1NvXbQ4Zihpj-25" value="N&lt;span style=&quot;background-color: initial;&quot;&gt;ACL&lt;/span&gt;" style="shape=mxgraph.ibm.box;prType=subnet;fontStyle=0;verticalAlign=top;align=left;spacingLeft=32;spacingTop=4;fillColor=none;rounded=0;whiteSpace=wrap;html=1;strokeColor=#000000;strokeWidth=1;container=1;spacing=-4;collapsible=0;expand=0;recursiveResize=0;dashed=1;movable=1;resizable=1;rotatable=1;deletable=1;editable=1;locked=0;connectable=1;" vertex="1" parent="o87X6tZE1NvXbQ4Zihpj-24">
          <mxGeometry width="150" height="151.21951219512192" as="geometry" />
        </mxCell>
        <mxCell id="o87X6tZE1NvXbQ4Zihpj-26" value="Public subnet" style="points=[[0,0],[0.25,0],[0.5,0],[0.75,0],[1,0],[1,0.25],[1,0.5],[1,0.75],[1,1],[0.75,1],[0.5,1],[0.25,1],[0,1],[0,0.75],[0,0.5],[0,0.25]];outlineConnect=0;gradientColor=none;html=1;whiteSpace=wrap;fontSize=12;fontStyle=0;container=1;pointerEvents=0;collapsible=0;recursiveResize=0;shape=mxgraph.aws4.group;grIcon=mxgraph.aws4.group_security_group;grStroke=0;strokeColor=#7AA116;fillColor=#F2F6E8;verticalAlign=top;align=left;spacingLeft=30;fontColor=#248814;dashed=0;movable=1;resizable=1;rotatable=1;deletable=1;editable=1;locked=0;connectable=1;" vertex="1" parent="o87X6tZE1NvXbQ4Zihpj-25">
          <mxGeometry x="7.5" y="22.68292682926829" width="135" height="120.97560975609754" as="geometry" />
        </mxCell>
        <mxCell id="o87X6tZE1NvXbQ4Zihpj-27" value="" style="group;movable=1;resizable=1;rotatable=1;deletable=1;editable=1;locked=0;connectable=1;" vertex="1" connectable="0" parent="o87X6tZE1NvXbQ4Zihpj-24">
          <mxGeometry y="158.78048780487802" width="150" height="151.21951219512192" as="geometry" />
        </mxCell>
        <mxCell id="o87X6tZE1NvXbQ4Zihpj-28" value="NACL" style="shape=mxgraph.ibm.box;prType=subnet;fontStyle=0;verticalAlign=top;align=left;spacingLeft=32;spacingTop=4;fillColor=none;rounded=0;whiteSpace=wrap;html=1;strokeColor=#000000;strokeWidth=1;container=0;spacing=-4;collapsible=0;expand=0;recursiveResize=0;dashed=1;movable=1;resizable=1;rotatable=1;deletable=1;editable=1;locked=0;connectable=1;" vertex="1" parent="o87X6tZE1NvXbQ4Zihpj-27">
          <mxGeometry width="150" height="151.21951219512192" as="geometry" />
        </mxCell>
        <mxCell id="o87X6tZE1NvXbQ4Zihpj-29" value="Private subnet" style="points=[[0,0],[0.25,0],[0.5,0],[0.75,0],[1,0],[1,0.25],[1,0.5],[1,0.75],[1,1],[0.75,1],[0.5,1],[0.25,1],[0,1],[0,0.75],[0,0.5],[0,0.25]];outlineConnect=0;gradientColor=none;html=1;whiteSpace=wrap;fontSize=12;fontStyle=0;container=1;pointerEvents=0;collapsible=0;recursiveResize=0;shape=mxgraph.aws4.group;grIcon=mxgraph.aws4.group_security_group;grStroke=0;strokeColor=#00A4A6;fillColor=#E6F6F7;verticalAlign=top;align=left;spacingLeft=30;fontColor=#147EBA;dashed=0;movable=1;resizable=1;rotatable=1;deletable=1;editable=1;locked=0;connectable=1;" vertex="1" parent="o87X6tZE1NvXbQ4Zihpj-27">
          <mxGeometry x="7.5" y="22.68292682926829" width="135" height="120.97560975609754" as="geometry" />
        </mxCell>
        <mxCell id="o87X6tZE1NvXbQ4Zihpj-30" value="&lt;font style=&quot;font-size: 8px;&quot;&gt;NAT GW&lt;/font&gt;" style="sketch=0;outlineConnect=0;fontColor=#232F3E;gradientColor=none;fillColor=#8C4FFF;strokeColor=none;dashed=0;verticalLabelPosition=bottom;verticalAlign=top;align=center;html=1;fontSize=12;fontStyle=0;aspect=fixed;pointerEvents=1;shape=mxgraph.aws4.nat_gateway;" vertex="1" parent="o87X6tZE1NvXbQ4Zihpj-24">
          <mxGeometry x="64" y="50" width="20" height="20" as="geometry" />
        </mxCell>
      </root>
    </mxGraphModel>
  </diagram>
  <diagram id="fWtcy6g113bxjsvhNqay" name="Page-4">
    <mxGraphModel dx="1279" dy="686" grid="1" gridSize="10" guides="1" tooltips="1" connect="1" arrows="1" fold="1" page="1" pageScale="1" pageWidth="1169" pageHeight="827" math="0" shadow="0">
      <root>
        <mxCell id="0" />
        <mxCell id="1" parent="0" />
        <mxCell id="Rvu3dcxqjJlxaJkFsOzf-1" value="VPC" style="sketch=0;outlineConnect=0;gradientColor=none;html=1;whiteSpace=wrap;fontSize=12;fontStyle=0;shape=mxgraph.aws4.group;grIcon=mxgraph.aws4.group_vpc;strokeColor=#879196;fillColor=none;verticalAlign=top;align=left;spacingLeft=30;fontColor=#879196;dashed=0;movable=0;resizable=0;rotatable=0;deletable=0;editable=0;locked=1;connectable=0;" vertex="1" parent="1">
          <mxGeometry x="270" y="290" width="570" height="280" as="geometry" />
        </mxCell>
        <mxCell id="Rvu3dcxqjJlxaJkFsOzf-2" value="Private subnet" style="points=[[0,0],[0.25,0],[0.5,0],[0.75,0],[1,0],[1,0.25],[1,0.5],[1,0.75],[1,1],[0.75,1],[0.5,1],[0.25,1],[0,1],[0,0.75],[0,0.5],[0,0.25]];outlineConnect=0;gradientColor=none;html=1;whiteSpace=wrap;fontSize=12;fontStyle=0;container=1;pointerEvents=0;collapsible=0;recursiveResize=0;shape=mxgraph.aws4.group;grIcon=mxgraph.aws4.group_security_group;grStroke=0;strokeColor=#00A4A6;fillColor=#E6F6F7;verticalAlign=top;align=left;spacingLeft=30;fontColor=#147EBA;dashed=0;movable=0;resizable=0;rotatable=0;deletable=0;editable=0;locked=1;connectable=0;" vertex="1" parent="1">
          <mxGeometry x="560" y="320" width="240.00000000000006" height="231" as="geometry" />
        </mxCell>
        <mxCell id="Rvu3dcxqjJlxaJkFsOzf-3" value="" style="group;movable=0;resizable=0;rotatable=0;deletable=0;editable=0;locked=1;connectable=0;" vertex="1" connectable="0" parent="Rvu3dcxqjJlxaJkFsOzf-2">
          <mxGeometry x="20" y="75" width="81" height="85" as="geometry" />
        </mxCell>
        <mxCell id="Rvu3dcxqjJlxaJkFsOzf-4" value="" style="rounded=1;arcSize=10;dashed=1;strokeColor=#ff0000;fillColor=none;gradientColor=none;dashPattern=8 4;strokeWidth=2;movable=0;resizable=0;rotatable=0;deletable=0;editable=0;locked=1;connectable=0;" vertex="1" parent="Rvu3dcxqjJlxaJkFsOzf-3">
          <mxGeometry width="70" height="85" as="geometry" />
        </mxCell>
        <mxCell id="Rvu3dcxqjJlxaJkFsOzf-5" value="ec2" style="outlineConnect=0;dashed=0;verticalLabelPosition=bottom;verticalAlign=top;align=center;html=1;shape=mxgraph.aws3.ec2;fillColor=#F58534;gradientColor=none;movable=0;resizable=0;rotatable=0;deletable=0;editable=0;locked=1;connectable=0;" vertex="1" parent="Rvu3dcxqjJlxaJkFsOzf-3">
          <mxGeometry x="10.88" width="48.25" height="32.69230769230769" as="geometry" />
        </mxCell>
        <mxCell id="Rvu3dcxqjJlxaJkFsOzf-6" value="" style="outlineConnect=0;dashed=0;verticalLabelPosition=bottom;verticalAlign=top;align=center;html=1;shape=mxgraph.aws3.role;fillColor=#759C3E;gradientColor=none;movable=0;resizable=0;rotatable=0;deletable=0;editable=0;locked=1;connectable=0;" vertex="1" parent="Rvu3dcxqjJlxaJkFsOzf-3">
          <mxGeometry x="-10" y="-9.807692307692308" width="40" height="19.615384615384617" as="geometry" />
        </mxCell>
        <mxCell id="Rvu3dcxqjJlxaJkFsOzf-7" value="f39" style="text;html=1;align=center;verticalAlign=middle;resizable=0;points=[];autosize=1;strokeColor=none;fillColor=none;movable=0;rotatable=0;deletable=0;editable=0;locked=1;connectable=0;" vertex="1" parent="Rvu3dcxqjJlxaJkFsOzf-3">
          <mxGeometry x="45" y="-24" width="35" height="26" as="geometry" />
        </mxCell>
        <mxCell id="Rvu3dcxqjJlxaJkFsOzf-8" style="edgeStyle=orthogonalEdgeStyle;rounded=0;orthogonalLoop=1;jettySize=auto;html=1;elbow=vertical;curved=1;movable=0;resizable=0;rotatable=0;deletable=0;editable=0;locked=1;connectable=0;" edge="1" parent="Rvu3dcxqjJlxaJkFsOzf-2" source="Rvu3dcxqjJlxaJkFsOzf-4" target="Rvu3dcxqjJlxaJkFsOzf-11">
          <mxGeometry relative="1" as="geometry" />
        </mxCell>
        <mxCell id="Rvu3dcxqjJlxaJkFsOzf-9" value="&lt;span style=&quot;color: rgb(22, 25, 31); font-family: &amp;quot;Amazon Ember&amp;quot;, &amp;quot;Helvetica Neue&amp;quot;, Roboto, Arial, sans-serif; font-size: 14px; text-align: start; text-wrap: wrap; background-color: rgb(255, 255, 255);&quot;&gt;153-&lt;/span&gt;&lt;span style=&quot;font-family: &amp;quot;Times New Roman&amp;quot;; font-size: 14px; text-align: start; white-space-collapse: preserve;&quot;&gt;10.0.0.46&lt;/span&gt;" style="text;html=1;align=center;verticalAlign=middle;resizable=0;points=[];autosize=1;strokeColor=none;fillColor=none;movable=0;rotatable=0;deletable=0;editable=0;locked=1;connectable=0;" vertex="1" parent="Rvu3dcxqjJlxaJkFsOzf-2">
          <mxGeometry x="5" y="170" width="100" height="30" as="geometry" />
        </mxCell>
        <mxCell id="Rvu3dcxqjJlxaJkFsOzf-10" value="9fa" style="text;html=1;align=center;verticalAlign=middle;resizable=0;points=[];autosize=1;strokeColor=none;fillColor=none;movable=0;rotatable=0;deletable=0;editable=0;locked=1;connectable=0;" vertex="1" parent="Rvu3dcxqjJlxaJkFsOzf-2">
          <mxGeometry x="35" y="10" width="40" height="30" as="geometry" />
        </mxCell>
        <mxCell id="Rvu3dcxqjJlxaJkFsOzf-11" value="SQS-EP-453&lt;br&gt;&lt;span style=&quot;color: rgb(22, 25, 31); font-family: &amp;quot;Amazon Ember&amp;quot;, &amp;quot;Helvetica Neue&amp;quot;, Roboto, Arial, sans-serif; font-size: 14px; text-align: start; text-wrap: wrap; background-color: rgb(255, 255, 255);&quot;&gt;10.0.0.23&lt;/span&gt;" style="sketch=0;outlineConnect=0;fontColor=#232F3E;gradientColor=none;strokeColor=#232F3E;fillColor=#ffffff;dashed=0;verticalLabelPosition=bottom;verticalAlign=top;align=center;html=1;fontSize=12;fontStyle=0;aspect=fixed;shape=mxgraph.aws4.resourceIcon;resIcon=mxgraph.aws4.elastic_network_interface;movable=0;resizable=0;rotatable=0;deletable=0;editable=0;locked=1;connectable=0;" vertex="1" parent="Rvu3dcxqjJlxaJkFsOzf-2">
          <mxGeometry x="163" y="153" width="49" height="49" as="geometry" />
        </mxCell>
        <mxCell id="Rvu3dcxqjJlxaJkFsOzf-12" value="prv-rt-" style="sketch=0;outlineConnect=0;fontColor=#232F3E;gradientColor=none;fillColor=#8C4FFF;strokeColor=none;dashed=0;verticalLabelPosition=bottom;verticalAlign=top;align=center;html=1;fontSize=12;fontStyle=0;aspect=fixed;pointerEvents=1;shape=mxgraph.aws4.route_table;movable=0;resizable=0;rotatable=0;deletable=0;editable=0;locked=1;connectable=0;" vertex="1" parent="Rvu3dcxqjJlxaJkFsOzf-2">
          <mxGeometry x="198.95000000000005" y="-27" width="41.05" height="40" as="geometry" />
        </mxCell>
        <mxCell id="Rvu3dcxqjJlxaJkFsOzf-13" value="Public subnet" style="points=[[0,0],[0.25,0],[0.5,0],[0.75,0],[1,0],[1,0.25],[1,0.5],[1,0.75],[1,1],[0.75,1],[0.5,1],[0.25,1],[0,1],[0,0.75],[0,0.5],[0,0.25]];outlineConnect=0;gradientColor=none;html=1;whiteSpace=wrap;fontSize=12;fontStyle=0;container=1;pointerEvents=0;collapsible=0;recursiveResize=0;shape=mxgraph.aws4.group;grIcon=mxgraph.aws4.group_security_group;grStroke=0;strokeColor=#7AA116;fillColor=#F2F6E8;verticalAlign=top;align=left;spacingLeft=30;fontColor=#248814;dashed=0;movable=0;resizable=0;rotatable=0;deletable=0;editable=0;locked=1;connectable=0;" vertex="1" parent="1">
          <mxGeometry x="320" y="320" width="200" height="230" as="geometry" />
        </mxCell>
        <mxCell id="Rvu3dcxqjJlxaJkFsOzf-14" value="&lt;span style=&quot;color: rgb(22, 25, 31); font-family: &amp;quot;Amazon Ember&amp;quot;, &amp;quot;Helvetica Neue&amp;quot;, Roboto, Arial, sans-serif; font-size: 14px; text-align: start; text-wrap: wrap; background-color: rgb(255, 255, 255);&quot;&gt;cb6 -&lt;/span&gt;&lt;span style=&quot;font-family: &amp;quot;Times New Roman&amp;quot;; font-size: 14px; text-align: start; white-space-collapse: preserve;&quot;&gt;10.0.0.108&lt;/span&gt;" style="text;html=1;align=center;verticalAlign=middle;resizable=0;points=[];autosize=1;strokeColor=none;fillColor=none;movable=0;rotatable=0;deletable=0;editable=0;locked=1;connectable=0;" vertex="1" parent="Rvu3dcxqjJlxaJkFsOzf-13">
          <mxGeometry x="20" y="150" width="110" height="30" as="geometry" />
        </mxCell>
        <mxCell id="Rvu3dcxqjJlxaJkFsOzf-15" value="167" style="text;html=1;align=center;verticalAlign=middle;resizable=0;points=[];autosize=1;strokeColor=none;fillColor=none;movable=0;rotatable=0;deletable=0;editable=0;locked=1;connectable=0;" vertex="1" parent="Rvu3dcxqjJlxaJkFsOzf-13">
          <mxGeometry x="20" y="10" width="40" height="30" as="geometry" />
        </mxCell>
        <mxCell id="Rvu3dcxqjJlxaJkFsOzf-16" value="&lt;span style=&quot;color: rgb(22, 25, 31); font-family: &amp;quot;Amazon Ember&amp;quot;, &amp;quot;Helvetica Neue&amp;quot;, Roboto, Arial, sans-serif; text-align: start; text-wrap: wrap; background-color: rgb(242, 243, 243);&quot;&gt;&lt;font style=&quot;font-size: 10px;&quot;&gt;nz-natgw&lt;/font&gt;&lt;/span&gt;" style="sketch=0;outlineConnect=0;fontColor=#232F3E;gradientColor=none;strokeColor=#232F3E;fillColor=#ffffff;dashed=0;verticalLabelPosition=bottom;verticalAlign=top;align=center;html=1;fontSize=12;fontStyle=0;aspect=fixed;shape=mxgraph.aws4.resourceIcon;resIcon=mxgraph.aws4.nat_gateway;movable=0;resizable=0;rotatable=0;deletable=0;editable=0;locked=1;connectable=0;" vertex="1" parent="Rvu3dcxqjJlxaJkFsOzf-13">
          <mxGeometry x="126" y="179" width="19" height="19" as="geometry" />
        </mxCell>
        <mxCell id="Rvu3dcxqjJlxaJkFsOzf-17" value="" style="group;movable=1;resizable=1;rotatable=1;deletable=1;editable=1;locked=0;connectable=1;" vertex="1" connectable="0" parent="1">
          <mxGeometry x="380" y="370" width="88" height="90" as="geometry" />
        </mxCell>
        <mxCell id="Rvu3dcxqjJlxaJkFsOzf-18" value="" style="rounded=1;arcSize=10;dashed=1;strokeColor=#ff0000;fillColor=none;gradientColor=none;dashPattern=8 4;strokeWidth=2;movable=0;resizable=0;rotatable=0;deletable=0;editable=0;locked=1;connectable=0;" vertex="1" parent="Rvu3dcxqjJlxaJkFsOzf-17">
          <mxGeometry width="70" height="90" as="geometry" />
        </mxCell>
        <mxCell id="Rvu3dcxqjJlxaJkFsOzf-19" value="ec2" style="outlineConnect=0;dashed=0;verticalLabelPosition=bottom;verticalAlign=top;align=center;html=1;shape=mxgraph.aws3.ec2;fillColor=#F58534;gradientColor=none;movable=0;resizable=0;rotatable=0;deletable=0;editable=0;locked=1;connectable=0;" vertex="1" parent="Rvu3dcxqjJlxaJkFsOzf-17">
          <mxGeometry x="6" width="48.25" height="60" as="geometry" />
        </mxCell>
        <mxCell id="Rvu3dcxqjJlxaJkFsOzf-20" value="" style="outlineConnect=0;dashed=0;verticalLabelPosition=bottom;verticalAlign=top;align=center;html=1;shape=mxgraph.aws3.role;fillColor=#759C3E;gradientColor=none;movable=1;resizable=1;rotatable=1;deletable=1;editable=1;locked=0;connectable=1;" vertex="1" parent="Rvu3dcxqjJlxaJkFsOzf-17">
          <mxGeometry x="-10" y="-20" width="40" height="30" as="geometry" />
        </mxCell>
        <mxCell id="Rvu3dcxqjJlxaJkFsOzf-21" value="d13" style="text;html=1;align=center;verticalAlign=middle;resizable=0;points=[];autosize=1;strokeColor=none;fillColor=none;movable=0;rotatable=0;deletable=0;editable=0;locked=1;connectable=0;" vertex="1" parent="Rvu3dcxqjJlxaJkFsOzf-17">
          <mxGeometry x="50" y="-19" width="38" height="26" as="geometry" />
        </mxCell>
        <mxCell id="Rvu3dcxqjJlxaJkFsOzf-22" value="pb-rt-" style="sketch=0;outlineConnect=0;fontColor=#232F3E;gradientColor=none;fillColor=#8C4FFF;strokeColor=none;dashed=0;verticalLabelPosition=bottom;verticalAlign=top;align=center;html=1;fontSize=12;fontStyle=0;aspect=fixed;pointerEvents=1;shape=mxgraph.aws4.route_table;movable=0;resizable=0;rotatable=0;deletable=0;editable=0;locked=1;connectable=0;" vertex="1" parent="1">
          <mxGeometry x="478.95" y="320" width="41.05" height="40" as="geometry" />
        </mxCell>
        <mxCell id="Rvu3dcxqjJlxaJkFsOzf-23" value="EIC-EP-SVC" style="sketch=0;outlineConnect=0;fontColor=#232F3E;gradientColor=none;fillColor=#8C4FFF;strokeColor=none;dashed=0;verticalLabelPosition=bottom;verticalAlign=top;align=center;html=1;fontSize=12;fontStyle=0;aspect=fixed;pointerEvents=1;shape=mxgraph.aws4.endpoint;movable=0;resizable=0;rotatable=0;deletable=0;editable=0;locked=1;connectable=0;" vertex="1" parent="1">
          <mxGeometry x="881" y="375" width="34" height="34" as="geometry" />
        </mxCell>
        <mxCell id="Rvu3dcxqjJlxaJkFsOzf-24" value="session manager" style="sketch=0;outlineConnect=0;fontColor=#232F3E;gradientColor=none;fillColor=#E7157B;strokeColor=none;dashed=0;verticalLabelPosition=bottom;verticalAlign=top;align=center;html=1;fontSize=12;fontStyle=0;aspect=fixed;pointerEvents=1;shape=mxgraph.aws4.systems_manager_session_manager;movable=0;resizable=0;rotatable=0;deletable=0;editable=0;locked=1;connectable=0;" vertex="1" parent="1">
          <mxGeometry x="393" y="122" width="78" height="78" as="geometry" />
        </mxCell>
        <mxCell id="Rvu3dcxqjJlxaJkFsOzf-25" style="edgeStyle=orthogonalEdgeStyle;rounded=0;orthogonalLoop=1;jettySize=auto;html=1;exitX=0.75;exitY=0;exitDx=0;exitDy=0;movable=0;resizable=0;rotatable=0;deletable=0;editable=0;locked=1;connectable=0;" edge="1" parent="1" source="Rvu3dcxqjJlxaJkFsOzf-18" target="Rvu3dcxqjJlxaJkFsOzf-24">
          <mxGeometry relative="1" as="geometry" />
        </mxCell>
        <mxCell id="Rvu3dcxqjJlxaJkFsOzf-26" style="edgeStyle=orthogonalEdgeStyle;rounded=0;orthogonalLoop=1;jettySize=auto;html=1;curved=1;movable=1;resizable=1;rotatable=1;deletable=1;editable=1;locked=0;connectable=1;" edge="1" parent="1" target="Rvu3dcxqjJlxaJkFsOzf-28">
          <mxGeometry relative="1" as="geometry">
            <mxPoint x="876" y="386" as="sourcePoint" />
            <mxPoint x="804" y="430" as="targetPoint" />
          </mxGeometry>
        </mxCell>
        <mxCell id="Rvu3dcxqjJlxaJkFsOzf-27" value="" style="edgeStyle=orthogonalEdgeStyle;rounded=0;orthogonalLoop=1;jettySize=auto;html=1;curved=1;movable=1;resizable=1;rotatable=1;deletable=1;editable=1;locked=0;connectable=1;" edge="1" parent="1" source="Rvu3dcxqjJlxaJkFsOzf-28">
          <mxGeometry relative="1" as="geometry">
            <mxPoint x="695" y="437" as="sourcePoint" />
            <mxPoint x="647" y="430" as="targetPoint" />
          </mxGeometry>
        </mxCell>
        <mxCell id="Rvu3dcxqjJlxaJkFsOzf-28" value="EIC-EP" style="sketch=0;outlineConnect=0;fontColor=#232F3E;gradientColor=none;strokeColor=#232F3E;fillColor=#ffffff;dashed=0;verticalLabelPosition=bottom;verticalAlign=top;align=center;html=1;fontSize=12;fontStyle=0;aspect=fixed;shape=mxgraph.aws4.resourceIcon;resIcon=mxgraph.aws4.elastic_network_interface;movable=1;resizable=1;rotatable=1;deletable=1;editable=1;locked=0;connectable=1;" vertex="1" parent="1">
          <mxGeometry x="722" y="378" width="38" height="38" as="geometry" />
        </mxCell>
        <mxCell id="Rvu3dcxqjJlxaJkFsOzf-29" value="de3-&amp;nbsp;&lt;span style=&quot;color: rgb(22, 25, 31); font-family: &amp;quot;Amazon Ember&amp;quot;, &amp;quot;Helvetica Neue&amp;quot;, Roboto, Arial, sans-serif; font-size: 14px; text-align: start; background-color: rgb(241, 250, 255);&quot;&gt;10.0.0.0/24&lt;/span&gt;" style="text;html=1;align=center;verticalAlign=middle;resizable=0;points=[];autosize=1;strokeColor=none;fillColor=none;movable=0;rotatable=0;deletable=0;editable=0;locked=1;connectable=0;" vertex="1" parent="1">
          <mxGeometry x="321" y="289" width="117" height="29" as="geometry" />
        </mxCell>
        <mxCell id="Rvu3dcxqjJlxaJkFsOzf-30" value="SQS-EP-SVC-0eb&lt;div&gt;&lt;br&gt;&lt;/div&gt;" style="sketch=0;outlineConnect=0;fontColor=#232F3E;gradientColor=none;fillColor=#8C4FFF;strokeColor=none;dashed=0;verticalLabelPosition=bottom;verticalAlign=top;align=center;html=1;fontSize=12;fontStyle=0;aspect=fixed;pointerEvents=1;shape=mxgraph.aws4.endpoint;movable=0;resizable=0;rotatable=0;deletable=0;editable=0;locked=1;connectable=0;" vertex="1" parent="1">
          <mxGeometry x="899" y="498" width="27" height="27" as="geometry" />
        </mxCell>
        <mxCell id="Rvu3dcxqjJlxaJkFsOzf-31" style="edgeStyle=orthogonalEdgeStyle;rounded=0;orthogonalLoop=1;jettySize=auto;html=1;curved=1;movable=0;resizable=0;rotatable=0;deletable=0;editable=0;locked=1;connectable=0;" edge="1" parent="1" source="Rvu3dcxqjJlxaJkFsOzf-11" target="Rvu3dcxqjJlxaJkFsOzf-30">
          <mxGeometry relative="1" as="geometry" />
        </mxCell>
        <mxCell id="Rvu3dcxqjJlxaJkFsOzf-32" value="" style="group;movable=0;resizable=0;rotatable=0;deletable=0;editable=0;locked=1;connectable=0;" vertex="1" connectable="0" parent="1">
          <mxGeometry x="715" y="453" width="88" height="66" as="geometry" />
        </mxCell>
        <mxCell id="Rvu3dcxqjJlxaJkFsOzf-33" value="" style="rounded=1;arcSize=10;dashed=1;strokeColor=#ff0000;fillColor=none;gradientColor=none;dashPattern=8 4;strokeWidth=2;movable=0;resizable=0;rotatable=0;deletable=0;editable=0;locked=1;connectable=0;" vertex="1" parent="Rvu3dcxqjJlxaJkFsOzf-32">
          <mxGeometry x="-7" y="24.004285714285714" width="79.9080459770115" height="50.57142857142857" as="geometry" />
        </mxCell>
        <mxCell id="Rvu3dcxqjJlxaJkFsOzf-34" value="fee" style="text;html=1;align=center;verticalAlign=middle;resizable=0;points=[];autosize=1;strokeColor=none;fillColor=none;movable=0;rotatable=0;deletable=0;editable=0;locked=1;connectable=0;" vertex="1" parent="Rvu3dcxqjJlxaJkFsOzf-32">
          <mxGeometry x="51.58620689655173" width="35" height="26" as="geometry" />
        </mxCell>
        <mxCell id="Rvu3dcxqjJlxaJkFsOzf-35" value="" style="edgeStyle=orthogonalEdgeStyle;endArrow=classic;html=1;rounded=0;endSize=8;startSize=8;sourcePerimeterSpacing=0;targetPerimeterSpacing=0;entryX=0.014;entryY=0.879;entryDx=0;entryDy=0;entryPerimeter=0;curved=1;movable=0;resizable=0;rotatable=0;deletable=0;editable=0;locked=1;connectable=0;" edge="1" parent="1">
          <mxGeometry width="100" relative="1" as="geometry">
            <mxPoint x="446" y="416" as="sourcePoint" />
            <mxPoint x="707.1187126436782" y="523.4565714285714" as="targetPoint" />
            <Array as="points">
              <mxPoint x="446" y="417" />
              <mxPoint x="551" y="417" />
              <mxPoint x="551" y="536" />
              <mxPoint x="707" y="536" />
            </Array>
          </mxGeometry>
        </mxCell>
        <mxCell id="Rvu3dcxqjJlxaJkFsOzf-36" value="vpn-eni" style="sketch=0;outlineConnect=0;fontColor=#232F3E;gradientColor=none;strokeColor=#232F3E;fillColor=#ffffff;dashed=0;verticalLabelPosition=bottom;verticalAlign=top;align=center;html=1;fontSize=12;fontStyle=0;aspect=fixed;shape=mxgraph.aws4.resourceIcon;resIcon=mxgraph.aws4.elastic_network_interface;movable=0;resizable=0;rotatable=0;deletable=0;editable=0;locked=1;connectable=0;" vertex="1" parent="1">
          <mxGeometry x="686" y="334" width="29" height="29" as="geometry" />
        </mxCell>
        <mxCell id="Rvu3dcxqjJlxaJkFsOzf-37" style="edgeStyle=orthogonalEdgeStyle;curved=1;rounded=0;orthogonalLoop=1;jettySize=auto;html=1;strokeColor=#172EFF;movable=0;resizable=0;rotatable=0;deletable=0;editable=0;locked=1;connectable=0;" edge="1" parent="1" source="Rvu3dcxqjJlxaJkFsOzf-38" target="Rvu3dcxqjJlxaJkFsOzf-41">
          <mxGeometry relative="1" as="geometry" />
        </mxCell>
        <mxCell id="Rvu3dcxqjJlxaJkFsOzf-38" value="machine client&lt;br&gt;&lt;span style=&quot;color: rgb(22, 25, 31); font-family: &amp;quot;Amazon Ember&amp;quot;, &amp;quot;Helvetica Neue&amp;quot;, Roboto, Arial, sans-serif; font-size: 14px; text-align: start; background-color: rgb(241, 250, 255);&quot;&gt;10.10.0.0/16&lt;/span&gt;" style="image;aspect=fixed;perimeter=ellipsePerimeter;html=1;align=center;shadow=0;dashed=0;spacingTop=3;image=img/lib/active_directory/laptop_client.svg;movable=0;resizable=0;rotatable=0;deletable=0;editable=0;locked=1;connectable=0;" vertex="1" parent="1">
          <mxGeometry x="875" y="140" width="45" height="50" as="geometry" />
        </mxCell>
        <mxCell id="Rvu3dcxqjJlxaJkFsOzf-39" style="edgeStyle=orthogonalEdgeStyle;curved=1;rounded=0;orthogonalLoop=1;jettySize=auto;html=1;entryX=1.062;entryY=0.489;entryDx=0;entryDy=0;entryPerimeter=0;strokeColor=#172EFF;movable=0;resizable=0;rotatable=0;deletable=0;editable=0;locked=1;connectable=0;" edge="1" parent="1" source="Rvu3dcxqjJlxaJkFsOzf-36" target="Rvu3dcxqjJlxaJkFsOzf-18">
          <mxGeometry relative="1" as="geometry" />
        </mxCell>
        <mxCell id="Rvu3dcxqjJlxaJkFsOzf-40" style="edgeStyle=orthogonalEdgeStyle;curved=1;rounded=0;orthogonalLoop=1;jettySize=auto;html=1;fillColor=#172EFF;strokeColor=#172EFF;movable=0;resizable=0;rotatable=0;deletable=0;editable=0;locked=1;connectable=0;" edge="1" parent="1" source="Rvu3dcxqjJlxaJkFsOzf-41" target="Rvu3dcxqjJlxaJkFsOzf-36">
          <mxGeometry relative="1" as="geometry" />
        </mxCell>
        <mxCell id="Rvu3dcxqjJlxaJkFsOzf-41" value="client VPN EP Service-ef5" style="sketch=0;points=[[0,0,0],[0.25,0,0],[0.5,0,0],[0.75,0,0],[1,0,0],[0,1,0],[0.25,1,0],[0.5,1,0],[0.75,1,0],[1,1,0],[0,0.25,0],[0,0.5,0],[0,0.75,0],[1,0.25,0],[1,0.5,0],[1,0.75,0]];outlineConnect=0;fontColor=#232F3E;fillColor=#8C4FFF;strokeColor=#ffffff;dashed=0;verticalLabelPosition=bottom;verticalAlign=top;align=center;html=1;fontSize=12;fontStyle=0;aspect=fixed;shape=mxgraph.aws4.resourceIcon;resIcon=mxgraph.aws4.client_vpn;movable=0;resizable=0;rotatable=0;deletable=0;editable=0;locked=1;connectable=0;" vertex="1" parent="1">
          <mxGeometry x="715" y="211" width="42" height="42" as="geometry" />
        </mxCell>
        <mxCell id="Rvu3dcxqjJlxaJkFsOzf-42" value="ACM" style="sketch=0;points=[[0,0,0],[0.25,0,0],[0.5,0,0],[0.75,0,0],[1,0,0],[0,1,0],[0.25,1,0],[0.5,1,0],[0.75,1,0],[1,1,0],[0,0.25,0],[0,0.5,0],[0,0.75,0],[1,0.25,0],[1,0.5,0],[1,0.75,0]];outlineConnect=0;fontColor=#232F3E;fillColor=#DD344C;strokeColor=#ffffff;dashed=0;verticalLabelPosition=bottom;verticalAlign=top;align=center;html=1;fontSize=12;fontStyle=0;aspect=fixed;shape=mxgraph.aws4.resourceIcon;resIcon=mxgraph.aws4.certificate_manager_3;movable=0;resizable=0;rotatable=0;deletable=0;editable=0;locked=1;connectable=0;" vertex="1" parent="1">
          <mxGeometry x="694" y="97" width="56" height="56" as="geometry" />
        </mxCell>
        <mxCell id="Rvu3dcxqjJlxaJkFsOzf-43" value="" style="group;movable=0;resizable=0;rotatable=0;deletable=0;editable=0;locked=1;connectable=0;" vertex="1" connectable="0" parent="1">
          <mxGeometry x="683" y="330" width="205" height="53" as="geometry" />
        </mxCell>
        <mxCell id="Rvu3dcxqjJlxaJkFsOzf-44" value="" style="rounded=1;arcSize=10;dashed=1;strokeColor=#ff0000;fillColor=none;gradientColor=none;dashPattern=8 4;strokeWidth=2;movable=0;resizable=0;rotatable=0;deletable=0;editable=0;locked=1;connectable=0;" vertex="1" parent="Rvu3dcxqjJlxaJkFsOzf-43">
          <mxGeometry width="78" height="53" as="geometry" />
        </mxCell>
        <mxCell id="Rvu3dcxqjJlxaJkFsOzf-45" value="demo-client-vpn-sg-8a0" style="text;html=1;align=center;verticalAlign=middle;resizable=0;points=[];autosize=1;strokeColor=none;fillColor=none;movable=0;rotatable=0;deletable=0;editable=0;locked=1;connectable=0;" vertex="1" parent="Rvu3dcxqjJlxaJkFsOzf-43">
          <mxGeometry x="61" y="24.999729729729722" width="144" height="26" as="geometry" />
        </mxCell>
        <mxCell id="Rvu3dcxqjJlxaJkFsOzf-46" value="authorisation rules&amp;nbsp;" style="whiteSpace=wrap;html=1;fillColor=#e1d5e7;strokeColor=#9673a6;movable=0;resizable=0;rotatable=0;deletable=0;editable=0;locked=1;connectable=0;" vertex="1" parent="1">
          <mxGeometry x="655" y="275" width="120" height="22" as="geometry" />
        </mxCell>
        <mxCell id="Rvu3dcxqjJlxaJkFsOzf-47" value="Internet&#xa;gateway" style="sketch=0;outlineConnect=0;fontColor=#232F3E;gradientColor=none;strokeColor=#232F3E;fillColor=#ffffff;dashed=0;verticalLabelPosition=bottom;verticalAlign=top;align=center;html=1;fontSize=12;fontStyle=0;aspect=fixed;shape=mxgraph.aws4.resourceIcon;resIcon=mxgraph.aws4.internet_gateway;movable=0;resizable=0;rotatable=0;deletable=0;editable=0;locked=1;connectable=0;" vertex="1" parent="1">
          <mxGeometry x="511" y="217" width="50" height="50" as="geometry" />
        </mxCell>
        <mxCell id="Rvu3dcxqjJlxaJkFsOzf-48" value="split Tunnel" style="html=1;strokeWidth=2;outlineConnect=0;dashed=0;align=center;fontSize=8;fillColor=#c0f5a9;verticalLabelPosition=bottom;verticalAlign=top;shape=mxgraph.eip.splitter;movable=0;resizable=0;rotatable=0;deletable=0;editable=0;locked=1;connectable=0;" vertex="1" parent="1">
          <mxGeometry x="666" y="206" width="45" height="25" as="geometry" />
        </mxCell>
        <mxCell id="Rvu3dcxqjJlxaJkFsOzf-49" style="edgeStyle=orthogonalEdgeStyle;curved=1;rounded=0;orthogonalLoop=1;jettySize=auto;html=1;movable=0;resizable=0;rotatable=0;deletable=0;editable=0;locked=1;connectable=0;" edge="1" parent="1" source="Rvu3dcxqjJlxaJkFsOzf-50" target="Rvu3dcxqjJlxaJkFsOzf-53">
          <mxGeometry relative="1" as="geometry">
            <mxPoint x="237.5999999999999" y="619" as="targetPoint" />
            <Array as="points">
              <mxPoint x="112" y="655" />
            </Array>
          </mxGeometry>
        </mxCell>
        <mxCell id="Rvu3dcxqjJlxaJkFsOzf-50" value="nz-peer-vpc-e9c" style="outlineConnect=0;dashed=0;verticalLabelPosition=bottom;verticalAlign=top;align=center;html=1;shape=mxgraph.aws3.vpc_peering;fillColor=#F58534;gradientColor=none;movable=0;resizable=0;rotatable=0;deletable=0;editable=0;locked=1;connectable=0;" vertex="1" parent="1">
          <mxGeometry x="84" y="465" width="55" height="45" as="geometry" />
        </mxCell>
        <mxCell id="Rvu3dcxqjJlxaJkFsOzf-51" style="edgeStyle=orthogonalEdgeStyle;curved=1;rounded=0;orthogonalLoop=1;jettySize=auto;html=1;entryX=0.557;entryY=0.007;entryDx=0;entryDy=0;entryPerimeter=0;movable=0;resizable=0;rotatable=0;deletable=0;editable=0;locked=1;connectable=0;" edge="1" parent="1" source="Rvu3dcxqjJlxaJkFsOzf-1" target="Rvu3dcxqjJlxaJkFsOzf-50">
          <mxGeometry relative="1" as="geometry" />
        </mxCell>
        <mxCell id="Rvu3dcxqjJlxaJkFsOzf-52" value="167" style="text;html=1;align=center;verticalAlign=middle;resizable=0;points=[];autosize=1;strokeColor=none;fillColor=none;movable=0;rotatable=0;deletable=0;editable=0;locked=1;connectable=0;" vertex="1" parent="1">
          <mxGeometry x="225" y="370" width="40" height="30" as="geometry" />
        </mxCell>
        <mxCell id="Rvu3dcxqjJlxaJkFsOzf-53" value="VPC" style="sketch=0;outlineConnect=0;gradientColor=none;html=1;whiteSpace=wrap;fontSize=12;fontStyle=0;shape=mxgraph.aws4.group;grIcon=mxgraph.aws4.group_vpc;strokeColor=#879196;fillColor=none;verticalAlign=top;align=left;spacingLeft=30;fontColor=#879196;dashed=0;movable=1;resizable=1;rotatable=1;deletable=1;editable=1;locked=0;connectable=1;" vertex="1" parent="1">
          <mxGeometry x="561" y="629" width="353" height="349" as="geometry" />
        </mxCell>
        <mxCell id="Rvu3dcxqjJlxaJkFsOzf-54" value="cbe-&amp;nbsp;&lt;span style=&quot;color: rgb(22, 25, 31); font-family: &amp;quot;Amazon Ember&amp;quot;, &amp;quot;Helvetica Neue&amp;quot;, Roboto, Arial, sans-serif; font-size: 14px; text-align: start; background-color: rgb(241, 250, 255);&quot;&gt;172.31.0.0/16&lt;/span&gt;" style="text;html=1;align=center;verticalAlign=middle;resizable=0;points=[];autosize=1;strokeColor=none;fillColor=none;movable=0;rotatable=0;deletable=0;editable=0;locked=1;connectable=0;" vertex="1" parent="1">
          <mxGeometry x="621" y="636" width="132" height="29" as="geometry" />
        </mxCell>
        <mxCell id="Rvu3dcxqjJlxaJkFsOzf-55" value="&lt;b&gt;virginia-us-east-1&lt;/b&gt;" style="text;html=1;align=center;verticalAlign=middle;resizable=1;points=[];autosize=1;strokeColor=none;fillColor=none;movable=1;rotatable=1;deletable=1;editable=1;locked=0;connectable=1;" vertex="1" parent="1">
          <mxGeometry x="826" y="608" width="117" height="26" as="geometry" />
        </mxCell>
        <mxCell id="Rvu3dcxqjJlxaJkFsOzf-56" value="Private subnet" style="points=[[0,0],[0.25,0],[0.5,0],[0.75,0],[1,0],[1,0.25],[1,0.5],[1,0.75],[1,1],[0.75,1],[0.5,1],[0.25,1],[0,1],[0,0.75],[0,0.5],[0,0.25]];outlineConnect=0;gradientColor=none;html=1;whiteSpace=wrap;fontSize=12;fontStyle=0;container=1;pointerEvents=0;collapsible=0;recursiveResize=0;shape=mxgraph.aws4.group;grIcon=mxgraph.aws4.group_security_group;grStroke=0;strokeColor=#00A4A6;fillColor=#E6F6F7;verticalAlign=top;align=left;spacingLeft=30;fontColor=#147EBA;dashed=0;movable=0;resizable=0;rotatable=0;deletable=0;editable=0;locked=1;connectable=0;" vertex="1" parent="1">
          <mxGeometry x="602" y="715" width="240.00000000000006" height="231" as="geometry" />
        </mxCell>
        <mxCell id="Rvu3dcxqjJlxaJkFsOzf-57" value="" style="group;movable=0;resizable=0;rotatable=0;deletable=0;editable=0;locked=1;connectable=0;" vertex="1" connectable="0" parent="Rvu3dcxqjJlxaJkFsOzf-56">
          <mxGeometry x="20" y="75" width="82" height="85" as="geometry" />
        </mxCell>
        <mxCell id="Rvu3dcxqjJlxaJkFsOzf-58" value="" style="rounded=1;arcSize=10;dashed=1;strokeColor=#ff0000;fillColor=none;gradientColor=none;dashPattern=8 4;strokeWidth=2;movable=0;resizable=0;rotatable=0;deletable=0;editable=0;locked=1;connectable=0;" vertex="1" parent="Rvu3dcxqjJlxaJkFsOzf-57">
          <mxGeometry width="70" height="85" as="geometry" />
        </mxCell>
        <mxCell id="Rvu3dcxqjJlxaJkFsOzf-59" value="peer-ec2" style="outlineConnect=0;dashed=0;verticalLabelPosition=bottom;verticalAlign=top;align=center;html=1;shape=mxgraph.aws3.ec2;fillColor=#F58534;gradientColor=none;movable=0;resizable=0;rotatable=0;deletable=0;editable=0;locked=1;connectable=0;" vertex="1" parent="Rvu3dcxqjJlxaJkFsOzf-57">
          <mxGeometry x="10.88" width="48.25" height="32.69230769230769" as="geometry" />
        </mxCell>
        <mxCell id="Rvu3dcxqjJlxaJkFsOzf-60" value="" style="outlineConnect=0;dashed=0;verticalLabelPosition=bottom;verticalAlign=top;align=center;html=1;shape=mxgraph.aws3.role;fillColor=#759C3E;gradientColor=none;movable=0;resizable=0;rotatable=0;deletable=0;editable=0;locked=1;connectable=0;" vertex="1" parent="Rvu3dcxqjJlxaJkFsOzf-57">
          <mxGeometry x="-10" y="-9.807692307692308" width="40" height="19.615384615384617" as="geometry" />
        </mxCell>
        <mxCell id="Rvu3dcxqjJlxaJkFsOzf-61" value="&lt;span style=&quot;color: rgb(22, 25, 31); font-family: &amp;quot;Amazon Ember&amp;quot;, &amp;quot;Helvetica Neue&amp;quot;, Roboto, Arial, sans-serif; text-align: start; text-wrap: wrap; background-color: rgb(242, 243, 243);&quot;&gt;&lt;font style=&quot;font-size: 11px;&quot;&gt;52d&lt;/font&gt;&lt;/span&gt;" style="text;html=1;align=center;verticalAlign=middle;resizable=0;points=[];autosize=1;strokeColor=none;fillColor=none;movable=0;rotatable=0;deletable=0;editable=0;locked=1;connectable=0;" vertex="1" parent="Rvu3dcxqjJlxaJkFsOzf-57">
          <mxGeometry x="45" y="-24" width="37" height="26" as="geometry" />
        </mxCell>
        <mxCell id="Rvu3dcxqjJlxaJkFsOzf-62" value="&lt;span style=&quot;color: rgb(22, 25, 31); font-family: &amp;quot;Amazon Ember&amp;quot;, &amp;quot;Helvetica Neue&amp;quot;, Roboto, Arial, sans-serif; font-size: 14px; text-align: start; text-wrap: wrap; background-color: rgb(255, 255, 255);&quot;&gt;980-&lt;/span&gt;&lt;span style=&quot;font-family: &amp;quot;Times New Roman&amp;quot;; font-size: 14px; text-align: start; white-space-collapse: preserve;&quot;&gt;172.31.102.103&lt;/span&gt;" style="text;html=1;align=center;verticalAlign=middle;resizable=1;points=[];autosize=1;strokeColor=none;fillColor=none;movable=1;rotatable=1;deletable=1;editable=1;locked=0;connectable=1;" vertex="1" parent="Rvu3dcxqjJlxaJkFsOzf-56">
          <mxGeometry x="-11" y="171" width="133" height="29" as="geometry" />
        </mxCell>
        <mxCell id="Rvu3dcxqjJlxaJkFsOzf-63" value="ce5" style="text;html=1;align=center;verticalAlign=middle;resizable=0;points=[];autosize=1;strokeColor=none;fillColor=none;movable=0;rotatable=0;deletable=0;editable=0;locked=1;connectable=0;" vertex="1" parent="Rvu3dcxqjJlxaJkFsOzf-56">
          <mxGeometry x="37" y="12" width="37" height="26" as="geometry" />
        </mxCell>
        <mxCell id="Rvu3dcxqjJlxaJkFsOzf-64" value="prv-rt-" style="sketch=0;outlineConnect=0;fontColor=#232F3E;gradientColor=none;fillColor=#8C4FFF;strokeColor=none;dashed=0;verticalLabelPosition=bottom;verticalAlign=top;align=center;html=1;fontSize=12;fontStyle=0;aspect=fixed;pointerEvents=1;shape=mxgraph.aws4.route_table;movable=0;resizable=0;rotatable=0;deletable=0;editable=0;locked=1;connectable=0;" vertex="1" parent="Rvu3dcxqjJlxaJkFsOzf-56">
          <mxGeometry x="198.95000000000005" y="-27" width="41.05" height="40" as="geometry" />
        </mxCell>
        <mxCell id="Rvu3dcxqjJlxaJkFsOzf-65" value="&lt;b&gt;ohio-us-east-2&lt;/b&gt;" style="text;strokeColor=none;fillColor=none;html=1;align=center;verticalAlign=middle;whiteSpace=wrap;rounded=0;fontSize=16;movable=0;resizable=0;rotatable=0;deletable=0;editable=0;locked=1;connectable=0;" vertex="1" parent="1">
          <mxGeometry x="177" y="239" width="187" height="30" as="geometry" />
        </mxCell>
        <mxCell id="Rvu3dcxqjJlxaJkFsOzf-66" style="edgeStyle=orthogonalEdgeStyle;curved=1;rounded=0;orthogonalLoop=1;jettySize=auto;html=1;fontSize=12;startSize=8;endSize=8;" edge="1" parent="1" source="Rvu3dcxqjJlxaJkFsOzf-80">
          <mxGeometry relative="1" as="geometry">
            <mxPoint x="688.0476771763392" y="836.2381243024554" as="targetPoint" />
          </mxGeometry>
        </mxCell>
        <mxCell id="Rvu3dcxqjJlxaJkFsOzf-67" value="EIC-EP-SVC" style="sketch=0;outlineConnect=0;fontColor=#232F3E;gradientColor=none;fillColor=#8C4FFF;strokeColor=none;dashed=0;verticalLabelPosition=bottom;verticalAlign=top;align=center;html=1;fontSize=12;fontStyle=0;aspect=fixed;pointerEvents=1;shape=mxgraph.aws4.endpoint;movable=0;resizable=0;rotatable=0;deletable=0;editable=0;locked=1;connectable=0;" vertex="1" parent="1">
          <mxGeometry x="956" y="746" width="34" height="34" as="geometry" />
        </mxCell>
        <mxCell id="Rvu3dcxqjJlxaJkFsOzf-68" style="edgeStyle=none;curved=1;rounded=0;orthogonalLoop=1;jettySize=auto;html=1;fontSize=12;startSize=8;endSize=8;" edge="1" parent="1" source="Rvu3dcxqjJlxaJkFsOzf-71">
          <mxGeometry relative="1" as="geometry">
            <mxPoint x="721.4761614118306" y="728.6191057477679" as="targetPoint" />
            <Array as="points">
              <mxPoint x="818" y="638" />
            </Array>
          </mxGeometry>
        </mxCell>
        <mxCell id="Rvu3dcxqjJlxaJkFsOzf-69" style="edgeStyle=none;curved=1;rounded=0;orthogonalLoop=1;jettySize=auto;html=1;fontSize=12;startSize=8;endSize=8;movable=0;resizable=0;rotatable=0;deletable=0;editable=0;locked=1;connectable=0;" edge="1" parent="1" source="Rvu3dcxqjJlxaJkFsOzf-71" target="Rvu3dcxqjJlxaJkFsOzf-72">
          <mxGeometry relative="1" as="geometry" />
        </mxCell>
        <mxCell id="Rvu3dcxqjJlxaJkFsOzf-70" value="vpc-flow-logs-sub-ce5" style="edgeLabel;html=1;align=center;verticalAlign=middle;resizable=0;points=[];fontSize=12;movable=0;rotatable=0;deletable=0;editable=0;locked=1;connectable=0;" vertex="1" connectable="0" parent="Rvu3dcxqjJlxaJkFsOzf-69">
          <mxGeometry x="-0.3084" y="-3" relative="1" as="geometry">
            <mxPoint x="-1" as="offset" />
          </mxGeometry>
        </mxCell>
        <mxCell id="Rvu3dcxqjJlxaJkFsOzf-71" value="&lt;span style=&quot;color: rgb(22, 25, 31); font-family: &amp;quot;Amazon Ember&amp;quot;, &amp;quot;Helvetica Neue&amp;quot;, Roboto, Arial, sans-serif; font-size: 14px; text-align: start; background-color: rgb(241, 250, 255);&quot;&gt;902a-f&lt;/span&gt;&lt;span style=&quot;background-color: initial;&quot;&gt;lowlog-for-sub-ce5&lt;/span&gt;" style="sketch=0;outlineConnect=0;fontColor=#232F3E;gradientColor=none;fillColor=#8C4FFF;strokeColor=none;dashed=0;verticalLabelPosition=bottom;verticalAlign=top;align=center;html=1;fontSize=12;fontStyle=0;aspect=fixed;pointerEvents=1;shape=mxgraph.aws4.flow_logs;movable=0;resizable=0;rotatable=0;deletable=0;editable=0;locked=1;connectable=0;" vertex="1" parent="1">
          <mxGeometry x="1026" y="621" width="78" height="78" as="geometry" />
        </mxCell>
        <mxCell id="Rvu3dcxqjJlxaJkFsOzf-72" value="cloud watch" style="outlineConnect=0;dashed=0;verticalLabelPosition=bottom;verticalAlign=top;align=center;html=1;shape=mxgraph.aws3.cloudwatch;fillColor=#759C3E;gradientColor=none;movable=0;resizable=0;rotatable=0;deletable=0;editable=0;locked=1;connectable=0;" vertex="1" parent="1">
          <mxGeometry x="1317" y="612" width="82.5" height="93" as="geometry" />
        </mxCell>
        <mxCell id="Rvu3dcxqjJlxaJkFsOzf-73" style="edgeStyle=none;curved=1;rounded=0;orthogonalLoop=1;jettySize=auto;html=1;fontSize=12;startSize=8;endSize=8;movable=0;resizable=0;rotatable=0;deletable=0;editable=0;locked=1;connectable=0;" edge="1" parent="1" source="Rvu3dcxqjJlxaJkFsOzf-74" target="Rvu3dcxqjJlxaJkFsOzf-75">
          <mxGeometry relative="1" as="geometry" />
        </mxCell>
        <mxCell id="Rvu3dcxqjJlxaJkFsOzf-74" value="vpc-flow-log-to-cw-role" style="outlineConnect=0;dashed=0;verticalLabelPosition=bottom;verticalAlign=top;align=center;html=1;shape=mxgraph.aws3.role;fillColor=#759C3E;gradientColor=none;movable=0;resizable=0;rotatable=0;deletable=0;editable=0;locked=1;connectable=0;" vertex="1" parent="1">
          <mxGeometry x="1048" y="571" width="40" height="30" as="geometry" />
        </mxCell>
        <mxCell id="Rvu3dcxqjJlxaJkFsOzf-75" value="cwpolicy" style="sketch=0;outlineConnect=0;fontColor=#232F3E;gradientColor=none;strokeColor=#232F3E;fillColor=#ffffff;dashed=0;verticalLabelPosition=bottom;verticalAlign=top;align=center;html=1;fontSize=12;fontStyle=0;aspect=fixed;shape=mxgraph.aws4.resourceIcon;resIcon=mxgraph.aws4.policy;movable=0;resizable=0;rotatable=0;deletable=0;editable=0;locked=1;connectable=0;" vertex="1" parent="1">
          <mxGeometry x="1182" y="538" width="60" height="60" as="geometry" />
        </mxCell>
        <mxCell id="Rvu3dcxqjJlxaJkFsOzf-76" value="custom format flow log" style="shape=image;verticalLabelPosition=bottom;labelBackgroundColor=default;verticalAlign=top;aspect=fixed;imageAspect=0;image=data:image/png,iVBORw0KGgoAAAANSUhEUgAAAmgAAAA3CAYAAAC4qLZCAAAAAXNSR0IArs4c6QAAAARnQU1BAACxjwv8YQUAAAAJcEhZcwAADsMAAA7DAcdvqGQAABWfSURBVHhe7d0PVFRl3gfwb8U22+s2ntyG1T0QFnjsBdY94NoS561kNSS1XGnVIO3Vo5hJ5ka0/sk/YbliuRipaZGbIm+CKIpoAqnQP7SUYTOhfB1LnTlvHsZ0GVMZ0+Z9nvtnGGAY5s7cgYH5fc65zp1779y54/Od333u3DvDTTYGPlS4vRSfH61Ds9UqTSGEEEIIIa74vINGCCGEEEKUuVm6JYQQQgghfoI6aIQQQgghfoY6aIQQQgghfoY6aIQQQgghfoY6aIQQQgghfsbn3+KcXfINCmrP4ZL1ujSFBJrbNUGYPLQ/3kq+V5qiDGUoMFFuiFooS8Rb3mbIEz7toPFQX7L+jKykCNz5q1ulqSTQnP/xGpaWG1jAb1YcbspQ4KLcELVQloi3vMmQp3x6ipMfcVCoCW9/ngOeB6UoQ4GLckPUQlki3vImQ57yaQeNfxxMoSYcz4EnpwcoQ4GNckPUQlki3vI0Q56iLwkQQgghhPgZ6qARQgghhPgZ6qARQgghhPgZ6qARQgghhPgZ6qARQgghhPgZ6qARQgghhPgZ6qAFiA/2fIDCrUXSPeX4Yz+s3C/dI4GCckPURHki3gqkDFEHTRUW1BXnYeOGPFSfkSZ1wqIvEpbfeMAoTfEdHsgdO3YKofQk2HKg+W1JyS5pKuntKDeOlL/Hu54R1bymbChCnUWa5FLXvibKkyOlbUW4QMsQddBUYYWpajmyVyzH1z9IkzphNVUJy2cfN0tTuobSYMuBll2zWqUxEkgoN8rf413PjK95TVlRBdMVaZJL3feaKE9K24q0FQgZog5aAHgiZRIeThwp3XM/2G0DzdfB10X8j7WhVPVPQig36vFF+/Q0lCf1mGvy/f7TN19sY6BliDpoAUJpsKko9iwWwz6ffBJCuVGHr9qnp6E8qcN0ZInff/rmq20MpAxRBy2AuBtsKoo9j9lYK42pj3LjPV+2T09DefKWGebT0qjf8u02BkqG/LSDZsWpirVYmDIS8WEDMWjYSEyZvQQFn5jZHJF8kb1wyuC6GXW785GdmYqFJa0vujfrS7Fx0SxMmZwqDOmL8lDW0PKZq+VMFYpXzGPzkpHAnytsGJJS5mF9hQFOP5ltrEHBomlIGiZtV+ZaVJ5okmY6wbbt8KYlSEsc1nrdzv7eqkWPYn7hqPTFAb7tBXzbMkthEqZ4r7Ng95qieEHP2mkWJj7I23QgEsazbOSWouGCNJ8xHXC4SNdiRHXxKmTNnoX1NQ4tL0xfjoVSfqZMnofs4hqYpSA65tByohzrWQZbspGHw43icu2wHAm5E3Ihb185TrULnXQxcbFeyKOQ15wlSJ+9FofZBMupGlQW56H4iHgto75EvOibD8X6divzWMDkhlP0Hnddq9xqH6F+5bHssXxJeRj0YDKrVfkd5kfMmlSz7Ms2S3OdUPCa3K2t3gikPClrKwvq2P4iffwD9hzwthL3WVaYj1WhbNNmlH/DlzWiKr8lT/Lpc8e6xk8zZs12eO4VpU5qjMTdmuRyP+XeNqohEDJ0k42RxlV3U+Z+NK1o+Q90V8O7yRj3ih66wQkYlRSPEKsB1cdqceqOOSh9axx0bBnz7lmIn1OOxMUrEb6XdXr04mORUYKTc2PZiBV1uSmYmCPOCIll6+nDpp6tQd3j8jJmlM0ehowjEYgbHCwsx5lP1OAUK4wxi/di24woaSpjKkXG+LkoY/Pk9eFGI07VGNiaRBk7T+MZvmqBEWXPJ7NNYnPDYhF31y+FqfL6BfbtZc6VIv2Pc1E55iX8feA+LFwnv6hMbDvzLGKke2rY+n4h9n94QLoHJI56GD///HO7aZOemCjd817fBfthW6UsDx5l6EIVskZNQ0FjKGImJGFUhAamY3rUH69Bwhst7VOXO5DlQ4fp2ZlozJkntCuXuOYI1j3GUubQ3giWMiK0dwQWfL4Bj/ZvyWFkbCwrVEZo4wdBdwtbvvEkDp9g7R48Djk7c/FoiLBqgVW/FjOeXiXsfO05kpcPm4R1769Eon15PdaHJSMnOA1/z2jE6vmlUtaSkMO2IaSIvwZhQjv216GiXp0bTuF7vLNaZRIyJi7blr19WB4GjV/V8nzcZSMOszwh+CnkVSzD8H7SdIbnZwpbvo5VwnA5b/LyAjEbPJ8Cha+p89qqnq7OU5dmiVHWVhZULxqBtC1m1k6TMGpUBG411aKuvh6Hh+ey//tQcX+1V3hgO3IbinWN7b9YTarTmxHzQCg0bL6w7+MdpFi2Pylg+xM5a4yimuRyPzUJJje2UU09IUMe4x00X8ELH9qartkUDrW27AFhtuAR79gOOZ0vDobtT9uC+XID/ss2+c2DNr2pyWY8z4aL4nzjvsW2KD5/zOu2UlObx1+Rx5ttxnPNrefx4WShbWK7bWi0Fczgz/cH2/TCs62XNx20LRjB54XZsg+3TJe3MSp9l63e/pxsuNJoK80aLW7/67Ut08/usk3m09gQO+MdW+nXjeJrOu9kG1UY3t5caPvLkzOcDnyes8d4M/A8KOVJhuT/9/SyJqfz5aH6dfH/Ovj3KbYF/1Nrqxf+r9lwic8/bssZw+ez9t580mZ08ng+2HM4Y7Pt0DnHec02/UZpXmqhrd4+XV7veFv2Z623r77wOTGzM3bZDPbp0vuBDVGPv2p79/BZKRNNtkb7MnI2W+fPV0NvzY3y97h7tarT9rnI2tKxPghDs60i6w/CYzL2OeTkEntOYTva58f41WapfjxtKzgrT/e8bnVUW9UeujJPXZclNihtK7n+P7evw3ojDnJNcGznlkGua8OzDtoMQi2Thyb7fifq1c8c6ofCmuTWfsr1Nqo9+HuGPNXzr0HLyMW6WQkID9ZCq2WDcFRgxkc78tm/OmQszsTwlg/HREHSLTTQ9uPHFm2EDYLQyW+wCqcpBGcOYjc/KoiciRnJoeI0WXA0ou6Wxu2MqC4pZ7dRmJ42DiH252SCdIiKarOOVjKR81YahofrxNekdbKNKmj7EbGsJ59O8ETi4lzMnxCLEOH/mg38v1tfhY38wHDMIixIiYBWWNKFwdGIdPiUg2crfMpMZPDsVVWh7pw41VqzT1zvhJl4cljrtYYkz8T0SDayt8jJqYAkLFj9EibEhkqZ0LJn6B69NjeK3+Mq6cPa0rE+CFh+ooYKY42XW34OwFp7EFsa2IiT/GhZBqOlcTtvXpPT2qq+3ponxW2lspCoaOhaFQkthk+biUQ2Zi7Wg28a53lN6pr9lDt6a4b8sIMWhZh0HescLceMlHkoqOrgei1XrCdRL3zE+mfEOJyhdMVqscAiDC3F0JH1rAHVfOThoeB57ZTViFNVfCQBsW49oHvcqtHg5ptbYsDHNb/svjeaGnS/T8Bwdls8cwzSc0tZ58h5m7piOlEjnP6JeyBWOKXumQj85yh+Ww7T/wkTYD6jF9abGB/lpNMXhdiH+W0NGgwdXSjiH3pjbhS/x9WoVY6uW6UaZIG1g/W4zk97yl9T9+iNeVLaVugfi+EJ7LZ4FsbNXosyfcs116rpHyHujxqPwyQdNFJN8l9+2EHTIC6jRDhy09QUIWvqSAy9fyQ7mHN2AXUHLpohnuHvC9ZmLlmO5SMjcRiifzcEQ4VhMAYNexpbpPkyy0XpmgF+DYE77NsgXnfmj/hFlHvL9grn62V8fA875Ha82LLHCZuEf5Qtw6ODm1GZMxcT/zgYCVOXoKCGlyH3mBtrhFttH2/aT4u+Uu/OaBbDK68XQR2sV8qX46cm/qa35kbxe1yNWsVdN6JyxTQkhA+WatAQRIcPxLhX2n/zs9P8tKH8NXW93ponpW0FhGLCm3ux9LEIWPeuQsZ4tl96cBqyNrGDRW86/q0EI1j41LQejfzaWoZqkv/yww4aExSKxAXvoep/j2Dbmkw8ekcTynJmIem/16LusrSMKzdr3Dv9c6YILzy6BGUXo5Hxzl5UfXUMtV99gtLcOcInMK3corAn7u42dBN+YaXjN1xGjPwT/jSCH76J+Lyiwm3SvZ5HO+Qp5FQeQe3B97B0CntdVfnIShmNjN3SDqsTmiDPPzdrYYVV+g2gUJ14bKrOertPr86N0vc4522tYhk5nJOM9A1V0E1diS0HWWZZHao5WIKXUwZJy7RQnB9PXlMX6s158ui9ro3C5DX7UVO3H3lZT7H9UBUKlqZi3ItqfZO/Gc3CwUMUgqVLf6gm+S//7KDJNDrEPPYs29F+im1zowD9Kuzmvy3QmeBQDBLCVwODi6/1mmpKhY//4zKW4ZlRUdI1SKGIjI9mxzKt6UIHiae66o3uvVHs23AcJrV+I0Ml/IjC8Rsu/Dx96pMpeHJyaqvz+JUVH/boow9OG56Aya+yHehnuUiEGWXry+3XXriiGxgv3FbWn/TiNIMB9R/z23jc+WthAkLufUS4rfvOWUfRDNMJfqtD9ED/K5q9PTeK3+OOPK1V1lpUr+Of7KYhY+EkxEnX8+jCYxET0f6Ekz2XBvcONLx6TT7W6/OksK1a6ReB4VOXIe/jT5AzhlWGkndQ4U7h6ozFgIZP+EgodHcIU6gm+TH/7qDZaVjYxS5TU7M7u8soPDSdX3xWg4Id+g53sJYLJ4Xbdtc2Xm/GVWnUbkiCeLFkxWaU6duusQlN7WqxvA3l2OJkGyztH9AleEgdjzZ4iB0vomx7sSVfticGu52QUITz2/Pudbd09z+CCXxkQz4q3dmzXWhq97t51iP7sJsX1YRxuD9MnKaNiRfWay7YhWqH32QTNOzCFumC7oeGiJPcJZ/Kv3pDvFVbQORG8XvcGee1qsP2YSsVzzRp2l2O4exPBdpzuZVtY9tcXm6S1uVAldekvkDIk+K2cioUIRH8thHX7Kc5WVDkL765OPVpYTWpLdP+IhSwW116AmKkvPmmJrm3jd4IhAzd8jIjjasuq/JbLBh5j3TPTefKkfVyEUzNN3Dlh+9hNptx5tgOrF6Wj9N9nsKLC8Zi4G3AlRN7sHGfAbh/Ep6LGyA9uIXunt/i4s5SHDhYhN1fXsCFn6y4qbEe1RU7ULjvBoY8dDcGXLegeMcX+KruAvoNugtBVw2oP1SK159+AUVCtllwn78P4tqDEXrHd9i9txoHikpxorkPfnGLGQ0H3sebz/0V/zwmLIT7n/grhkmbowv5NU7v3oOP2Jti98nL6BMUBHNDFQpzn8ULb9eLCzlu/48n8MG75TjV6nnV01mgZdG/i8bVq1fx7alvhfv8lt/n072RfeBbvJyoLA+eZKjh3Wl4q9qKazYLzEYzy9A3+HTDKqz81/eIyXgJs2PFynHu8zdQfAgIHz0TYwa3+YrabREYcPvHKGRHsBV79uD0D2AF8jLOHC1H6dY8nLpzLIb8xiGH/yrFzn3fwXzjGq5fOY0jBasw92/vs7aMRcaaRRjxG+lremy9g8O/wwfbt6Gw/Bv0+W0/XGs0wnA4H4tffANHL+sweeVrmHCPvLf+HkffKMIhRGBU2lgM/pU0uZU+0Fz6EpsrT+Oo4Xtc//dpNBzVo+HaXRgS6v1X7wIlN4rf427WKpftc28/WL58DwdOfwHDT3cj4o4bOHdSjwPrluBvOVXgZ8hb5fO2UAy4tQaFldUsl1/g3M9BuOUay1txHrIzl+MD4bSqY1aU163Oaqu3ujNPXZclRmlbHctD2poqWH8CLrGawPN04tP1WP3KlzgX+zzmzx0qfhqKvrjx7yLsPHIM+jNsJd+fQN3RKpy/PR7hd7bUNVN1PnY67Psq3l6GhatYpoLH4fWVM1tqidKa5NZ+yvU2equnZchT/vcJ2n9oEXyeFb450zAlJRUTxydjysxVqL4tCUs3v9TqBxtd6peApRUlmM8vuKzKx/rMWZgydS6yVpTDrBWvD9PEz8G7WUkIaSxF1tQxGPdIKhauPYnYf+zHuiniahzpxuRi2ztpGB5mROWGeUhPmYaMfxoQmrkf5auTpKUc9E9Czs4NmJ4QCtPePCycmYq0OWznHpqJ8kp+yq3ruBtoGZ/Hl5Hxx/J19ATafloc2srbJ5VlKJllaBoWbjIibsZ7yHH84eFORM7YivI1rL1vM6BswxJkTE1FOius27/QoG9faSHZ3A1Yl2xFxdK5SEuZhYUbymEKS8L87ZvwzBC5syUKeew1bGHrjbtajmyWCZ7zNP5XB1jG528/gKUj3PrOVyshozOFi4t1+iKsX7Ec2Svy0dDuY2DlAik3nKL3uIJa1XH7hGLCq+9herwOdevmYuIjYzAxZTk+6jsJW7a/5OSblxpEpm9CadY4hIP/8ruYt9XlzRieewRbMtqfhlJct3wosPKksK36BuP2L4qE/YScp7TMfJji05DH6kVLFjSIS31N2K+YD7DOHs/TxnIY23xAmshylRFuwHZp35e9tQZg68opfA2J8o8YS9SvSe5toycCKUN++ZcEBJctsFxuxCkTC09EKHTe/MaKla1LCoaGFdV2vzlkn69x87dc+NfhxRVq3Pw9Kv4zHuJTaNufUvUxpYF25M1j2+raX/EW28hiOg6LNhohOu/+3+3t1yYj8q+u239lnf9UwhW+pDtZ4tvYCJPBCp23GZcJWXY3x64FZm5kCt7jSmqVi/aRM+a0RjmjKGucgtfkA/6Qp+7JEqOgrYQcWIxosGgRGRLsenmevRut1yn/JQH7X6pQtH/zQU1yso2e6qkZ8pT/XoPWh+1QgyMQE8uOOr1tWN4pEr4A0EHhs89393l42KT1SVM6wwui8BgV8u4NpaHky/LHyH5x663SmL8T2ygkMp4VOe//3+3t19mKguRsuPOEfNlQRKqRcZmQZfVDFji5kSl4jyupVS7aR86YW50zTlHWOAWvyccCLk8K2krIQUgU4iL5j1J3sjzPnluZc++5xYyoXJPc2UYPBEKGesiXBIg3eDCTHx8v/D0yJYGW8ceMfHgE/jLhcTzO1kMCA+WGqInyRLwVaBmiDlqAGDN2tFd/LDYl9Qk8Mrprr1ch3Y9yQ9REeSLeCqQMUQeNEC9o75uDLVvfx5axwnfhCSGkW4WPZfWI1aT0+5R/2Yj4F+qgEeIFTf8oxMXHIy6ciiEhpPtpw1k9YjUpsr/6132RrkUdNEIIIYQQP0MdNEIIIYQQP0MdNEIIIYQQP0MdNEIIIYQQP0MdNEIIIYQQP+PTDtrtmiCc//GadI8EMp4DngelKEOBjXJD1EJZIt7yNEOe8mkHbfLQ/lhabqBwBzje/jwHPA9KUYYCF+WGqIWyRLzlTYY85dM/ls7NLvkGBbXncMl6XZpCAg0/4uChfiv5XmmKMpShwES5IWqhLBFveZshT/i8g0YIIYQQQpShLwkQQgghhPgZ6qARQgghhPgZ6qARQgghhPgZ6qARQgghhPgZ6qARQgghhPgZ6qARQgghhPgV4P8Bc6IO3UqvlzMAAAAASUVORK5CYII=;movable=0;resizable=0;rotatable=0;deletable=0;editable=0;locked=1;connectable=0;" vertex="1" parent="1">
          <mxGeometry x="1051" y="722" width="300" height="26.78" as="geometry" />
        </mxCell>
        <mxCell id="Rvu3dcxqjJlxaJkFsOzf-77" style="edgeStyle=none;curved=1;rounded=0;orthogonalLoop=1;jettySize=auto;html=1;fontSize=12;startSize=8;endSize=8;movable=0;resizable=0;rotatable=0;deletable=0;editable=0;locked=1;connectable=0;" edge="1" parent="1" source="Rvu3dcxqjJlxaJkFsOzf-78" target="Rvu3dcxqjJlxaJkFsOzf-72">
          <mxGeometry relative="1" as="geometry">
            <Array as="points">
              <mxPoint x="1341" y="530" />
            </Array>
          </mxGeometry>
        </mxCell>
        <mxCell id="Rvu3dcxqjJlxaJkFsOzf-78" value="CW insight" style="sketch=0;outlineConnect=0;fontColor=#232F3E;gradientColor=none;fillColor=#E7157B;strokeColor=none;dashed=0;verticalLabelPosition=bottom;verticalAlign=top;align=center;html=1;fontSize=12;fontStyle=0;aspect=fixed;pointerEvents=1;shape=mxgraph.aws4.cloudwatch_metrics_insights;movable=0;resizable=0;rotatable=0;deletable=0;editable=0;locked=1;connectable=0;" vertex="1" parent="1">
          <mxGeometry x="1410" y="438" width="77" height="78" as="geometry" />
        </mxCell>
        <mxCell id="Rvu3dcxqjJlxaJkFsOzf-79" value="" style="edgeStyle=orthogonalEdgeStyle;curved=1;rounded=0;orthogonalLoop=1;jettySize=auto;html=1;fontSize=12;startSize=8;endSize=8;movable=0;resizable=0;rotatable=0;deletable=0;editable=0;locked=1;connectable=0;" edge="1" parent="1" source="Rvu3dcxqjJlxaJkFsOzf-67" target="Rvu3dcxqjJlxaJkFsOzf-80">
          <mxGeometry relative="1" as="geometry">
            <mxPoint x="688.0476771763392" y="836.2381243024554" as="targetPoint" />
            <mxPoint x="956" y="763" as="sourcePoint" />
          </mxGeometry>
        </mxCell>
        <mxCell id="Rvu3dcxqjJlxaJkFsOzf-80" value="EIC-EP-&lt;a id=&quot;link-self139-1717101102380-4598&quot; class=&quot;awsui_link_4c84z_7y59r_99 awsui_variant-secondary_4c84z_7y59r_168 awsui_font-size-body-m_4c84z_7y59r_432&quot; aria-labelledby=&quot;&quot; data-analytics-funnel-value=&quot;link138-1717101102380-8533&quot; target=&quot;_top&quot; href=&quot;https://us-east-1.console.aws.amazon.com/ec2/home?region=us-east-1#NetworkInterface:networkInterfaceId=eni-081b5193ee3429f39&quot; style=&quot;background-color: rgb(241, 250, 255); -webkit-font-smoothing: inherit; border-collapse: initial; border-spacing: 0px; box-sizing: border-box; caption-side: top; cursor: auto; direction: inherit; display: inline; empty-cells: show; font-family: &amp;quot;Amazon Ember&amp;quot;, &amp;quot;Helvetica Neue&amp;quot;, Roboto, Arial, sans-serif; font-size: 14px; font-stretch: normal; font-variant-numeric: normal; font-variant-east-asian: normal; font-variant-alternates: normal; font-variant-position: normal; hyphens: none; line-height: var(--line-height-body-m-2zx78l,22px); list-style: outside none disc; tab-size: 8; text-align: start; text-decoration-color: rgba(0, 0, 0, 0); text-decoration-line: none; text-decoration-thickness: 1px; text-shadow: none; text-underline-offset: 0.25em; transition-duration: var(--motion-duration-refresh-only-medium-0rwzu1,165ms); transition-property: color, text-decoration, -webkit-text-decoration; visibility: visible;&quot;&gt;9f39&lt;/a&gt;&lt;br&gt;&lt;span style=&quot;color: rgb(22, 25, 31); font-family: &amp;quot;Amazon Ember&amp;quot;, &amp;quot;Helvetica Neue&amp;quot;, Roboto, Arial, sans-serif; font-size: 14px; text-align: start; text-wrap: wrap; background-color: rgb(255, 255, 255);&quot;&gt;172.31.105.213&lt;/span&gt;" style="sketch=0;outlineConnect=0;fontColor=#232F3E;gradientColor=none;strokeColor=#232F3E;fillColor=#ffffff;dashed=0;verticalLabelPosition=bottom;verticalAlign=top;align=center;html=1;fontSize=12;fontStyle=0;aspect=fixed;shape=mxgraph.aws4.resourceIcon;resIcon=mxgraph.aws4.elastic_network_interface;movable=1;resizable=1;rotatable=1;deletable=1;editable=1;locked=0;connectable=1;" vertex="1" parent="1">
          <mxGeometry x="784" y="750" width="38" height="38" as="geometry" />
        </mxCell>
        <mxCell id="Rvu3dcxqjJlxaJkFsOzf-81" value="" style="shape=image;verticalLabelPosition=bottom;labelBackgroundColor=default;verticalAlign=top;aspect=fixed;imageAspect=0;image=data:image/png,iVBORw0KGgoAAAANSUhEUgAABFEAAADyCAYAAACF3lr0AAAAAXNSR0IArs4c6QAAAARnQU1BAACxjwv8YQUAAAAJcEhZcwAADsMAAA7DAcdvqGQAADTJSURBVHhe7d0HnBTl/cfxBxWiJiaAhcRGVVFpKkgSRZRYEHtBUWyogVgiFqyxo6ixYlQQBUSiEkVRRKyxYAVBuoDAySmIZwEU/lFBuf99H+Y55uZm957d273dPT7v12tedzc7Nzs788zzPPN7ytYpKi4uXby0xHTq2MEAAAAAAAAg3kbBTwAAAAAAACRBEAUAAAAAAMADQRQAAAAAAAAPBFEAAAAAAAA8EEQBAAAAAADwQBAFAAAAAADAA0EUAAAAAAAADwRRAAAAAAAAPBBEAQAAAAAA8EAQBQAAAAAAwANBFAAAAAAAAA8EUQAAAAAAADwQRAEAAAAAAPBAEAUAAAAAAMBDnaLi4tLFS0tMp44dglXGfL1sWfAbAAAAAAAAJDaIsmbNmuA3AAAAAAAACMN5AAAAAAAAPBBEAQAAAAAA8EAQBQAAAAAAwANBFAAAAAAAAA8EUQAAAAAAADwQRAEAAAAAAPBAEAUAAAAAAMADQRQAAAAAAAAPBFEAAAAAAAA8EEQBAAAAAADwQBAFAAAAAADAA0EUAAAAAAAADwRRAAAAAAAAPBBEAQAAAAAA8EAQBQA2YCtWrgx+AyoibSAR0gaAmkBeg3xFEAUAAAAAAMADQRQAAAAAAAAPBFEAAAAAAAA8EEQBAAAAAADwQBAFAAAAAADAA0EUAAAAAAAADwRRAAAAAAAAPBBEAQAAAAAA8EAQBQAAAAAAwANBFAAAAAAAAA8EUYAkli9fbk457UxzcNcjzMKiT4O1lfluBwAbotWrV5tRT442Rxx9vNm+8U52ueKqa8yPP/5Ynn+69eHXsOHI93JUx6Rj0zHqWBMZ8+xYm4bvGXhfsAZAvtH9qftU9yuQDoIoAACkQAGB/zz1tDnv7xeZTxctCtYikV9++cUMHTbC9Lv0SjN16vRgbeFZVFxsepx8ujnwkMPNlI+mBmuRTz6cPMVcdMllZtwLLwZrACDzFixYaK67/iYzaPBDwZr8QR2lZmQtiDJn7jzTqfNB5RG+0U+PoZUeObVq1f+ZvhddWt7S+epr/w1eAVBoXGtveOl+Yk/z6MjHzf/+979gq+z4v//7P/P88y+Y+fMXmLVrS4O1SOSbb781r7/5lmnUaBszfOhg89mn88zi4vnm1gH9zaabbmoaNGhg/v3oMLtuzNOjgv/KrrjeLx3/3Nmcc15f8957H5Rd17XBligk7777vnlq9BizZs2aYE28CW+/U37d+5zzd/P99yuDVwCgajNnzTZDh48wP/30U7CmIuootV/WgiirVq2y0a/f/ObX9u/Fi5eYTTbZxGy8MZ1fkBufL15sPvpomtl3nz/byrx+VwspgNrh/Q8mmauuvs5cfuU1ZsV33wVrkWsKYH+34juza8tdTPu99jQbbZSf9YAlS74wz48bb0446VQz6MGHzM8//xy8sk6Txo3NqMdHmNdeHmf22nOPYC0Kjcr999+faFq0aG46tN/LfPzxXLPkiy+CVwEgO6ij1C5Zq8msWLHC/qxfv74tsBSpa9iwgfndb39r12PDVFpaaj6eM9dc0u8K06ptB9Ny93bmb+deYCO6es1xEVz9/PbbZbYbuP4+u/e5lbqmKaKryK4ivNpGXa019l7d2cLmzp1nvv7ma3PG6aeY3XZtaSZ/NNW2kIZpDP7Ifz9Rvq8DDjzUTJ7yUfDqej7buZZOLcuWLTMvvfyq6XzAwba189+PjapUQQcKlbsH3XwXSudDhz1SobUllfvB5RP9LrvKvq584sKLL4vtltrv4r62B8OihXPMc2OeNHvs0db2MlMLjKM85L4HHrTvp+PTcUZbg3zyHLdN63Z7mzffetseo9unFuZAyL6qrqXSktYrGBL1ww8/mEsv/4c5qecZZelxXR1F1PtFaWjWjMnm6qsut40/2ufsj+esez247uFFw0aifNKQRMtBLZddcbVtbIryLd8KkW95W1X+4uYq0Wt33DXQrvt730vs31qU54TnMPmu7OFl1uyPzR87djDHH3e0vTZTplQenqV6rNJa125H2f0c1/0k89nnnwevrqe6hcurtN1NA24LXlnPN20AyDzluQpg6HnDPXs88ui/g1fXqyqvCfdgVB4jynP0t5a4ERfUUWqvjAdRXGHW66y/2b+POa6HadyspfnX/YPtBdWF1UXGhkkVpF5n9bFj9VRBUQulxi7f9s87ywNvYQq+PTB4iK00ih68/nn73WblylX2b2Vo/7jmehvZVQYptkJTlrlMnzHT/i2qrE2c9KFp3bqVadumtWm1+25m5sxZ5rPP1leIlFn1v/lWc+U/ri3f1zfffGuPMcx3u7Bp02ea6264yd4fau28acCt9n4ACp3urVtuvcPeg26+C6Xz62642bz8ymv276iq7odXXv2vzSdG/ecp+7ruLQ0JfXDIUPt+cdTTcffddrWLtv/yyxK7/uuvvyl7cL7K3HrbHeWVGx2njvfmW/5ZoZIiVeU58KfJYVVxUyVOlTlXB3AVurhARDI+17JRo63t+rgu1ko7S5cuNdtss7WpV69esHa9+r/7nTnt1JNNt0MPselu0qTJwSupqSoNfTDxwwrloJbHn/iPOef8vhUeqH3Lt0LkW46mk79URf+vtNdq993NnnvuYZo2aWJmzZ5dIW9RWru43xU2rSngInHHp2M//cze5XmVlJR8ZX/GIX8BapYCKM+NHVeW5/a2zxvu2UP3c1g28pow6ii1D2NrUKNUeVRF4/xz+5hPF8yxY+Pfe/t1s1+nfU2dmC7ec+bMsxnM5EnvmDf/+5LtQVJc/Jn5dtm6zE8Zm8Y/K7I7dsxTdn8L5s00995zh/nVr35ltxHtQ62KzZs1NQ0a1C+rOLWzmZjGvrseMO+9P9E8/cyzFfY1dfL7dvhPmO92zk+rV5vxL75sLr/04rLP/LG59JIL7Xtr3iCg0H1ZUmIn2VTX+JfGP2dbXD6ZM908MmxI+XDOsKruBz2APDLi3zafuPiiC8ycWVPN54s+sfnELrvsbLeJo54s77z7nnnjzQl2uF7jxjvae1tBewVlTuh+rJky6V17v6o1SHmJ7mPX28BJluccc/SR9vPNnDbJ7N+5k33trTdeseu0XNj3/GAvyDTfa7llwy1tulOvDv3PwHvvt/OzKX39738/2LSmXrG/+lXlIIpsvvnmZteWLe3v6jGlnrTuuqtsOaVnD/taMsnSkCrET41+2vbK1bG7Mkvzw6ji/NprbwR78S/fCpFvOeqTv6hcf+Wl5+1ravWVfw28s/y+1Hw7mndHlCbcA9Iuu+xkttt2W7Pbbi3t8N4lXyy162Xc+BdtWjvwLweYt9961eZB/33lBdOy5S7BFsY+tDw68rFKedVdd1TuieJUVacBkFlLl35pHnt83Vxb/7z1JpuHKr/pe8F5dp3jk9eE5+9SHiOup4kW5UPKj+JQR6l9Mh5EUeJ54flnzF/P7mUO2H8/M2PqRDPlw3fNn/7U0VaWVcDoImPD1LKs0iLqRqfI68SJH5qtttrS9P7rmbYVMOo/T402xx17tPl9o0Y2Y1MGNX7cGDs2XV2zp5RVfOTMM06zgRGNtddEhccec5Rp07qVfU3mziuroJVVnNTypNebNm1qK0MaRvTd99/bivKUKR/ZCvYRh3WzFTvta5NNNraL47tdmMZeK/M86MC/mLp169qMW5nZ389b11sLKGQNGzQ0O+ywvZ2pXkNu1PVVQyW6HNDZpvmoqu6HTxcVm7ffedeWH2ec1tNsscVvTJ06dcyOO+5gep1+qr1/w1xX2ibNdzVnnNnHPtCc2es0W3nQQ477FpUTuh9vKy66X9u1bWP+0mV/ex9PmzbDvu4ky3OQGgUGdG1VidP1UKVOlTtXodN8FL58r2XDLRuYZmX5u/L1ZcuW2x4w6t2hHhw//vSTDWI0bNjQtgomojJJlq9YUeUEpXGSpaGlX5aYWbM+tsd11DEnmB2b7mJa7NLa9tqRhUVFtkU0lfKtEPmWo6nmL1Vx6Ui9UpWnKH9RcFbX45NP5tttwvnCiSccb3uqKA/apCy/2qjsp7N4yRJ7LXX83Y87pjyvqls3cdoifwFq1oKFC22PMQVou3XravNQ5Td1I2VApvMahzpK7ZXxIIrGWzVtsZt56OHhNtrWZo+OZq8O+9iK8+133mMOOfTI8u5K2PB03q+TGXDTDeZ3v/ud7Z7fvccpZs8Of7ZpI9plTZTptW3bOvirItc1W7bffjv7M44CH2plUubUps26iuc2W29tA35Tp023Q3pUUVaFWbbeeitbEYrju13UIQcfaCtYQG3z299uYS7td5HpeshB9kFVXV81N8ARR3e3912cZPeDu6e3225b2yvAl1qKtN+RI4aav57Vyz4k//LLz3aWelVWdL86G2+8cXlLvl4PS5bnIHd8r6V6eKiniYIQap1Tb5LO++1rZsycZUq+LLEPy9uXpa1kFpdVckWV1GjQzkeyNKTj0TFUxbd8K1S+5Wg6+UsymkBWE8lqSG/DBg3se7dutZt9bdKHk20Zv2bNavNtMF+aC6jFcV+goDQX1+suDvkLULM0f4joXt40SQ++TOc1UdRRah+G86BGaRy6xpy/O+G/5o3XXjSXXHRBWUZS13a5jhtzmCzT23jjTcyvf72u4rJwYZH9GUeTx2oSWQ0T6Hb4MTYivFvrPc0L41+y69QbRhnWZpttZrdX0MXRV4P98sv6r7r03S4qWUUMKHQtmjczDw95wE7Mqa+wVY+D6dNnmLsH/ss+NEYlux/cw0hx8efmu+++t78n47rSzp09zQx9aJDtweLmu9AQQVVUNBlk+Dh077o5M7baan3FRaqqaCE3fK+l8mcFHTScZ94nn9heJ0cdeYSd18JNCposKKGvunU9EtTdOh3J0tBvfvMb27NBFXXdL65Xjlvc1z77lm+FKpVyNNX8JRlNIKvAhxr61OCn+oCbw0+9Vb/66usK5z58POp6v7ZscfSQo8YZbRP+GtHwZ4oifwFqlqtT6D7VPSzRe9nJZF7jUEepvTIeRNF4q3cmvGa7mrqEo4QomgFf3Y4SjRdD7afJ815/4y37zQI77dTCnHXmGeaQg9Z1k3Otf77Uku2+ZvKxsv2qS5yGCagFT9/M4MYRagZsTSKbiCrXP/20uixdNrN/T5w02XahU/T6rnvutUMLHA0/8NkO2FAsKi42Qx4aZnt0/XaLLcyBf+li/tbnbPua7o3vV660v/tqucsutnu87ifd1/oaQFV4tH9N3qj729cWZQ+s+lpd3aeaW0JB07Vr15r33v/APPPsWNvbRe+Vrm/LKj1ffPFFecUM2eN7LfVgu80229jhPK/99w3bwrdn2fqV3680b014x/6twEqUrqHGxN973wN2jLqGGqUy3MhXo222Nk2a7GjHxo8a9ZTtzh3Ht3wrVL7laLr5i3ohRb/BSL1dP5pa+Vt4HE18r+FUv/715qZZ0yZ23QcfTLT70ftr4ke1UDsKoDQrq89+Mn+++XjOHPvgozT3r/sGBVsAyLXtt9/eBq4VDHH5wpOjnzHDhj8abLFOunmN5lJSHpYO6iiFLSs9UX7++Rezes2a8lYcJQ7NP+Em9sKGS608p51xttl517blPUL0DQXKKPbrtE+wlR91wz2sW1c7345akDS+XGMONb78nPP62gqTMg61PCkNKpgXbvGb+N5bpv1ee9puep8vXmz22eePNrN6YtST9uvP2u7ZsbwSHua7HbAhUOuOhub9uVMXO7/DDk12Nj1OPt2+pntz2z/8wf7uS70ENOeDWo/uuvte06pNe7tP7X9aWSUoFeo5prHDul8VwN1r733sMeorbjUuWb3idtl53TxNqVArtR4CVeHRvnR8ys/4+sD06JtSdP606Bv9RF9VrLxc6/S677VUuaDhmioT1LtR2yuoovqIgg9bbrllpfm39J66hu333tcMfvBhWx5ddunFNi0qaOG+ZUjHo+Ny/6N1ei2VwJ4CON2PP9b+rq/C3bXVHuWf3X1W8Snf9NCuSr/Ohb51Qv+rb0K6/sab7cSDOjZ9JbLm/so3vuVoqvmLm3xa8xA022l3e07dVxy7+Wh0Xj+e+VGF+sB111xl/09Dz6VLl/1tOnD70fvPmzff7BzKL7YqS0td9u9cng/omyjPOLO37WWjAAuA3GvapLHtUaJhlMoPdT/r6+XV6yQs1bxGgRnd5y4PU14T9xXHyVBHKWxZCaKosFK0fn237M9Mvbp1TaKJN7HhOP20nqb/jdfaDENUSelxYnczfOiDaU2Up/8ffP+95orL+5VlGOt6OGnft9x8o2ndanebFtW6pIpZs6Dly9lyy4amZcudbddeRaiVId5w7dV2vKEceGAXM+i+gebQrgfbvx3f7YANgSootwy40ZzY/ThTv359u+5Pf9zbzn2k4XpxXyWbjB4eTz+1pxn20GA7fljliPar/Z9x2ikpz1Ghidd0f/Y8uYfNL0T37pDB95WPS06VPtN55/axrVRun8g+32vpvuZY+f52221ne3W4h3N9vbEbax6lyVs1Af6Y0aNsGs6WIw7vVlbmDTGHH3Zo+T0Tp6ryzYc+a3QCxXzgX96mlr9oMsY7br+lvI4RNmPGTPsgpbQQnZOpXbs2Nq/R16/rq0/VwHLj9dfY/Wj98ccdYwYPutfs3WF97yQ9AKlOc/GFf7fXSstVV15qbrulv9kyprcTgJqnOoNGSZx6ykk2D1GjvvII5fVhqeY1mmNR97rLw9JFHaVw1SkqLi5dvLTEdOrYIVi1bvJMAEDtt2LlSlN/iy2Cv4D1SBtIhLQBoCaQ1yBfMbEsAAAAAACAB4IoAAAAAAAAHgiiAAAAAAAAeCCIAgAAAAAA4IEgCgAAAAAAgAeCKAAAAAAAAB4IogAAAAAAAHggiAIAAAAAAOCBIAoAAAAAAIAHgigAAAAAAAAeCKIAAAAAAAB4IIgCAAAAAADggSAKAGzA6m+xRfAbUBFpA4mQNgDUBPIa5CuCKAAAAAAAAB4IogAAAAAAAHggiAIAAAAAAOCBIAoAAAAAAIAHgigAAAAAAAAeCKIAAAAAAAB4IIgCAAAAAADggSAKAAAAAACAB4IoAAAAAAAAHgiiAAAAAAAAeCCIAgAAAAAA4IEgCgAAAAAAgAeCKAAAAAAAAB7qFBUXly5eWmI6dewQrDLm62XLgt8AAAAAAAAgsUEUAAAAAAAAVMRwHgAAAAAAAA8EUQAAAAAAADwQRAEAAAAAAPBAEAUAAAAAAMADQRQAAAAAAAAPBFEAAAAAAAA8EEQBAAAAAADwQBAFAAAAAADAA0EUAAAAAAAADwRRAAAAAAAAPBBEAQAAAAAA8EAQBQAAAAAAwANBFAAAAAAAAA8EUQAAAAAAADwQRAEAAAAAAPBAEAUAAAAAAMADQRQAAAAAAAAPBFEAAAAAAAA8EEQBAAAAAADwkPMgSknJV+ahh4eZTxctCtYAAAAAAADkn5wHUU48+TRz9bU3mk6dDzT33jfIrF27NngFAAAAAAAgf+Q8iDJnzlz7c82an83NA24zXbsdZRYsLLLraspdd99rGm3bxP4EAAAAAACIk3dzokyfMdPs3+VgM/De+7PeK2XSh5Nt8GS33XY1B+y/X7AWAAAAAACgsrycWFa9Ugbcers59PBjzPz5C4K1maXeLkOHjTBzZ081HfduH6wFAAAAAACIl5dBFGfatOmmy0HdsjJXSovmzcyDg/5lGjRoEKwBAAAAAABILK+DKLJ69eryuVL4Bh8AAAAAAJAreR9EcTRXyrnnXxj8BQAAAAAAULMKJogiS5Z8EfwGAAAAAABQswomiNKuXVvz3Jgng78AAAAAAABqVt4HUerVq2f+cdXl5sVxY0zTJk2CtQAAAAAAADUrr4Mo6n3y+qvjzQXnn2M22qigRh4BAAAAAIBapk5RcXHp4qUlplPHDsGqmtVo28q9S+rW3cRcdukl5vxz+2QteLJ8+XJzznl9zRtvTgjWVPT8c6PN3h3aB38BAAAAAIANXd4FUdq2aW0euH+gadG8WbAGAAAAAAAg93I+RqZ5s6b2p5v75KXxzxFAAQAAAAAAeSfnPVGmTZ9h3nrrbdOtW1ezU4vmwVoAAAAAAID8kvMgCgAAAAAAQCHgK28AAAAAAAA8EEQBAAAAAADwQBAFAAAAAADAA0EUAAAAAAAADwRRAAAAAAAAPBBEAQAAAAAA8EAQBQAAAAAAwANBFAAAAAAAAA8EUQAAAAAAADwQRAEAAAAAAPBAEAUAAAAAAMBDnaLi4tLFS0tMp44dglXGrFy1KvgNAAAAAAAAQk8UAAAAAAAADwRRAAAAAAAAPBBEAQAAAAAA8EAQBQAAAAAAwANBFAAAAAAAAA8EUQAAAAAAADwQRAEAAAAAAPBAEAUAAAAAAMADQRQAAAAAAAAPBFEAAAAAAAA8EEQBAAAAAADwQBAFAAAAAADAA0EUAACQdffdP9i02LmVGTt2XLAGAACg8OQ8iPLVV1+bESNGmuLPPgvWAAAAAAAA5J+cB1F6ndXH9L/5NtP10CPN4CFDzdq1a4NXUNsVfbrIHHHkcXbR72ErVqywaUOtlnHLNdfeYH788cdg6/UtnG7R3+nQPrXv8L60TPloarBFZe69033PsPD7J2utjX7e6LY63vDrbtE51blNRyrn2L1/ovfT8Yb3VdX+kP/i7tnofZPo/tISTcMuf3Cv++YTcdtF0254idse2XH+eX8zCz6ZZY488vBgDbCOu0fjyoG48iK8hPMZn3zDl2/+4rj3zlSeUlU5KtHPm2jbaB6YifI22TVzou8bzedTPcdAdfjcB3FpMlqXASTnQZR58z6xP9es+dncccfd5tjjT6qxzJMbJTfcg9Tw4SNMz549grUV1a9f3wwf+qCtcIeXyZPeMZ067WM6tN/LbLrppnZblwm6bV55eZx5+eVXkxbsiWif/W+8rsJ73nXHrebEHqdWShuugtOy5S72mKpLlYvuJ/Q0nTvvZ3Yt22ccd+703joXOr7/jBppLu53RaXKifahcxH+LDqnOrep8j3H7p56//2J5sK+5wdrK9NDVPi4qnPNkHu67hddcnn5Q7KWRPeNKG2Er7+W8IO1yoAb+w8wAwfeWf76IYccZPr2vaRC+RCXT8RtFz6u8KLjaNeujdn2D78PtgRQk3zK0Wh54RblMfqf5s2a2u188w1fvvmLT50mFb7lqM7dwYccbv56di97bLNmTDbbb7etzYu1DyeTdSTxuWa+dRXfcwxUl899kGpdBhu2vJsTZdas2eaww482gwY/lNVeKdwoufPw0EdsEETBis032yxY62fChHfMN19/Y1q1bhWsWfeApMVp1rSJLYR1HcMViXTtt9++tqKwZPGSYM26ytrIkY/bykH7vfYI1qZPx/rh5CnmqScfM82CCmGc2R/PMdOmzTDXXH1leTBkrz33sGl3zHPPZ+TzxvE5x6o03XnXwErb+nD7KykpsftBYXEVYaVFx903ehBIldLDI8OG2J9Ot25d7c9ZM2fZn4m47ZYvX25/JqJ7WBWocEAW2aFKqmuo0BJXxiof0YOjXgv3PNC6aL7mHtDC+3SLe0Bz+9Pf2md4m7j3D7+nlvCDnuP26bZJ1GLuu92GrjrlqM6xyjzlOa4srE6+4Ssuf6lOnSbKtxzVds8+O9YGWVwAWvnYJRf3tb+rruRE9+XK23D57cv3mlWnruKbhwOp8LkPMl2XQe2WlxPLqleKCpHjTuhpFi4sCtZmFjdK7igTS6c7t6s0KdMLV5JyQe9/z923l1cOqkvpUBWwqh7mlDajLefuvLz99rtmYdGnwdqa53rxhO8pIF+NH/+S2WrrrWy+j+xSnu9a/hL1snPUkPHZ54vt9q5lXfUBF1zVz5sH3GZ/1+uuAUTU0h0tW9TyrSCOaw3Xttdff1OFoIZeVx7qttFxPvTw8AqBFOWzanhR/qZttIx8dKhNR+7YxHc7VK8cdQ0q7oE7l9Kt08TxLUe/WPqlDVL86U8dgzXr6LyoLqBGmWykN99rls91FQDIhLwMojgzZ8w0Rxx1PHOlwPKtNKnioB4NqnxnooX534+Nsj9z/bDlPlejRo3KP5ceBE497SzT8+QelXrLzJk7z3b1da2hcS266cr0OVZLwD0D7zNHH31kRvaH3Fu2fIW9X3fcYftgzXq61i5daolr9Y9Sq6TS9HbbbxesqUzpUl3qVXnffbddg7WV6b5RL5RjjjoiY4FQZMZJPbqbs886w/6uvEAt/IuXfFH+QOgeHsN5RbIGEO1v0P0Dy6+z68XoWrldWtCDsNtGD4oaIhFuMXfpOfzQqu31f+E8y3c7pM89jPs0qPjkG75885ea4NJvgwYN7E9RMFDBk5v6X1fhnonKdPkd5fbvW1cJy6dzjNrN9z5IVpfBhi2vgyiyevXq8rlSsv0NPtwo+SuVStMrr7xmnhj1VLW66Ye7n6uCHe6Smi/04Nn/pltsK2e0W224FVSLa9FVJSbcApuuTJzjcBd7tT6rhZheLLWDqwhLeOid0opaWcNp042T1z2XiO5/va7Kt5v/wNF7uaEdrdq0tw8P6tKeLF3SCyV/VZWnuIfiOHFld/hBTlR+PD/26fK8RsM8lBai6UoP3aoPqF4gDRvUt9tVNeTXdzukz7dBJVm+4Sud/KWm6XOqkUTp32dIUSbK71Qkq6tIIZxj1D4+90GiugwgeR9EcTRXysWXXB78lXncKPnNt9KkwloPZOFxwulw3c+1aJI6TXKW7CGvpulY1OIUbmFNRgVEr16n29+rOzY8U+c4HOhRkEefJ5O9ZZAbyks13EKVk+uvv7rKoKfSgdJSeFxymNZpeITu/7hgptJ2ODCje7f93vsm7N1CL5TCptZp9S7RfBBKa+LKh3TKbg0d0vACpRkX1NWiIEiY0oryW723XtM2cXOd+G6H9Cg/8GlQqSrf8JVq/lLTioo+tY0jOi6f8jhT5bcvn7pKvp9j1D4+90GqdRlseAomiCJLl34Z/JZZ3Cj5zbfSpIcwZYrh7uCZoPdU1+5ED3k1RRUNtapqKISo0qF14npRJeuy7FpI9dCQrmydY30OBXn0GRgrXdg0yaLy0lR6FqkFVdfetfo7yps1H4Yecn3zZheUSTQnAL1QCpuuqVqqlcbUaq0gheYvUbA7nbJbaU89Fdx8KOFFPVbC+ww/7GneFIn7FhHf7ZA6nwaVdPINX1XlLzXFDeMZWFYfUNoP57Uq4+OGKGSr/I7S+1anrpIv5xi1k+99kE5dBhuWggmitG7T2jzx+LqeIpnGjZLffCpNyhTV6qdM8R9XXV6p8hCmbVXxVvfRmiyg1SKj961O64rG2Wtixui5SNQlPUzBCVUqoxPRiSr3ai1N1hMklXOMDZPSuCrOykt9Wzl1D6qyHJ2EUOtdcFtDfjKRNyud0wulsKk8kHDQIxrsSEV02I4vvZ8eXsXNTxHHdztUzadBJZV8Q9u6YSQq32qKT3lbFeWVyjOj50L702eJDlFIpfzOdV0FyBbf+yCdugw2PHkfRKlXr57p1+8i8/STj5nGO+4YrM0cbpT85lNpSvXh3k0+qMkJNUlhVbR/Ra2r8+DlKjZSndYVdWVXxUlDz9w+3PGpC2yi41OlTd9IodaduEqlKjaaZyDRrPmpnuNU6fxozDSTyRWudPNSBbF1L6onkktX1QmgqOKv44ibpJheKIUv3aBHIi5PVf6T7IFWeWD0odINjQxP7um7HVJXVYNKqvmGm6RYXL2gKsnyF19Vlbc+9N46Bh2Lq1vo86sHjnqhHHzwgXadpFJ+57quIpk4x0CU733AcyF85XUQRb1Pnn9utPlb77PMRhtl/lC5UXJDBaRaObSoQFVlwn2LTLR3iCpNiXpPiLbV2HhRxcl173aLrnGU25cK+HDLt6gCodah6D7U6hlOI+HtNHZXx6i05P7HVUIcVRhchS5uEivXMqX/1bnQOdG50d/h8fT6P2X+4j6rCoVohTF8jt0+1a1ZlZc4mktArUaJJu70Pcf63a3X+dB5cXMNJNpOi7bRsYW7/aJwuB4e4tJteHH3Q9z9pdnxn3rysQpB0tkfz7FpTZS+w9uH74fwfeMWVfw1x070Acodo9bTC6XmhK+5y9vcNU2nJV7XT0H18DePuSWcx/hSfqN8R/t1eVXc/lx6Cr+uAL8mywynXd/tkFo5qm11HuPKbcc333Bcbw5J1kMzvJ+4/CWVOo0kK2/FtxzVMajsd59VZbOEHxBTrSNVVVfxvWa+dZVU8nAgXb73gasnSLK6DCB1ioqLSxcvLTGdOnYIVhmzctWq4LfsU6KMqlt3E9O3799N77N7ZSV4IrpRNEZZhV2cVFs/AQBAdqmyq0pudA4UVW71kEajCAAAyLa864nSqtXu5oVxz2at94mjypfGUbsx1dGFAAoAAPlDrYnquRTXG0FDZdS6DwAAkG05D6I0bdLY/nRznzwz+gm6vAIAgAo0RKBRo0aV5rNScEVzL0g6X3MMAACQipwP55k5c5Z559337SRYzNYNAACS0ZAezcMQlq1JrwEAAKJyHkQBAAAAAAAoBHk3JwoAAAAAAEA+IogCAAAAAADggSAKAAAAAACAB4IoAAAAAAAAHgiiAAAAAAAAeCCIAgAAAAAA4IEgCgAAAAAAgAeCKAAAAAAAAB4IogAAAAAAAHggiAIAAAAAAOCBIAoAAAAAAICHOkXFxaWLl5aYTh07BKsAAAAAAAAQRU8UAAAAAAAADwRRAAAAAAAAPBBEAQAAAAAA8EAQBQAAAAAAwANBFAAAAAAAAA8EUQAAAAAAADwQRAEAAAAAAPBAEAUAAAAAAMADQRQAAAAAAAAPBFEAAAAAAAA8EEQBAAAAAADwQBAFAAAAAADAA0EUAAAAAAAADzkPopSUfGUeeniY+XTRomANAAAAAABA/sl5EOXEk08zV197o+nU+UBz732DzNq1a4NXUNstWFhkuhx4qF30e9jy5ctNj7K00WjbJrHLpZdfZX788cdga2PuuvveCq/r73Ron9p3eF9aJn04OdiiMvfe6b5nWPj9n37m2WBtZdHPG7et1oW3iZ6zdOg8aF+6NrpGcdx1de8bt2302LRk4vwhd+Lu2bj7xnc7ABuOZOVoXHkRXsL5R7T8iatf+IrLq5Ltz713dd4zLJvlrZZ06wSp5OFV1WlSPcdAdUTrztH8JtEzgJZo+vW5D3zTd/S4wgv3Qx4rKi4unfDBpNJc2eYPjSssBx1yeOn8BQuDV7Pnhx9+KO132ZWV3n/ipA+DLZAt7txreXTkY6UH/KWr9zVftmxZ6YknnVo6+ukxwZrS0jvvGmgXR/vSPsPrqkPvFZc29LfWv/jSK/aYqvt+eh8dt/ann+HP6Lhzp/fTuRB3HOHt9bu20/bizlt4XSrc/7tzHX7/sOixxB1vnExfM9Qslz7C94jSQPS+8d0OwIbBlRnplKPKO8Jli8qRE3qcUqE+of2lUseoStz+qlOniePySb2XlvBnDHPnrqryNnqeqsMdm08ervU6F8nqNHEyfc0AcfeTo/SldBZe5+6h8Lo4qdwHUamkb22r40mn3o7sy7s5UabPmGn273KwGXjv/VntlbLpppua228bYEq+WFS+PHDfPeaIo46nVTTLHhg0xPyx4972/G+++ebBWj+vv/GW+eqrr03btm2CNcZcfNEFdnFaNG9mDj/sUHsdoy0y6ehyQGdzwP77mc8/XxysWdf6M3TYCDN39lTTce/2wdr06Vg/mDjJjB83xrRo0TxYW9mMmbPMlClTzU39rzcNGjSw6/bu0N6m3adGP1P+eY879mh7fpXORdt2P/5Y+7+Ll3xh1/lSZH7ArbdXOs9R2k7HcPmlF9v3F73/VVdcan/XtUvEXbOlX36ZVssYckvpa9Tjj9q06Lj75p133gvW+G+H2kd5XLh1La7HgSRqkXPbu5Y9tQpG9xlXdkdb4eNawyX6vj6t5rQQVk91ylFdC5U3yktcWahy5D9PjLQ/nSOPPNz+nD59hv1ZXW5/ZQ9R9qdUp04TVRPlbXX45uG+dZo4cecYqK7oPVWdZ4Xq1GV807fyx3EvvGjzFleXR37Jy4ll16z52RYihx5+jJk/f0GwNvviHpaRecrEXKGfCldpUqYXriTlgt7/wUH/Kq+8VZcy4nDQIxFlznvttYfZfrttgzXrz8sbb04w8xcsDNZmjo5JxxYuLOIoOKMgzb77/jlYs44qczo2VagIkAAbHgUkrrjyGvPu26/bBgs9NKviGg2k6G+t1+va7vnnRtv1ChJHHyjPPf9Cu73bVtvoPcJBDb2uvNFto/e//4EHKwVIou+r5Ztvvq2wL+Wz55zX1+aDbpunn3rcjB07jnwtTdUpR12DinsgyaV06zRxakt561unARBPZcs222xtn02Rn/L623mmTZtuuhzUjblSYPlWmlRxUI+GHXbY3my22WbB2vQNf2Sk/ZnrjMx9rj/8/vflFRNV8o/rfrI54/RTqwwAFhd/ZjPkLRtmJvAT5aLqDRs2tD9FDyeqzN3xzwH22H744YfglYr0AHPb7XfZ3jJUumqHb5ctt/dr48Y7Bmvi+W6HwuSCvOed26c8+K2HZj14qpXNBSq0nfIB5QHuobpN61bmtFNPjn0g1PpHhg0p39b1TnT5kGvF0/u4bfT+Og4dj95PXL6qh77ww3yf3mdVCNa7dBp+aHWfgzyrZrk05dOgovQw++M5tj5QXUorDw552DZkKG3mUqrlrQIrLXffo7wXVSbmSHMymYfn0zlG7eby/rhnBdVH3b2iJVEPxjCf+8A3fbvyK1weIv/kdRBFVq9ebW4ecJvp2u2orH+DT748LKOyVCpNL4x/yTw68vFqdYFTZcRlnsrIwsNn8oUy9auvud62hlbVFdoFKaIPCtmi66Vu7ypMEnVx1jG5c6xhdGpJrqr1DYXBVRQkPPQuync7FC71jlPFMnp93cOfexh0FdA44cCxE12ncuH1114sz0M0fENB450iQwlUYdb76P1E+9C+lD8q309EwWftjyG/uefboKJySNdUDQzRdOBLeZSbaLJxs5Y2OKEhM/kUOKuqvFUvGdd7Sot6XOlznHFmb/u/1ZGJPLwQzjFqn7hnBf3UPRS+X9Qj0vV8TCTZfZBO+qYXSmHI+yCKo7lSlIgzrRAeluFfaVJgQekkPE44HWpddBnokAfvN737nJc0A61pOha1OIVbYhNRhV8Vf7XcnntO72Bt9iwoe2hS75iqujjrYced4+KiufbzqCJY3UodcksVhmuuu9FWTm69pX/CoKfvdihsqjCqJ8A+nbqUl7Va9LfWO7r+CpKHe4loDiilj+iQBR/qeRdtfdeivDBKeZWCuOHWx2jLo/JZ5bfKR7UPbcOcKDVPacOnQUXbafiV6g3VqddFH6qUVpSmfFqma4JveRumc6HtqzsEOFN5eL6fY9Q+qTwrqK6q7VSXjqufVnUfpJq+6YVSOAomiCJLUpwQ04cSs0vY+fiwDP9KkzI4ZYqZDhboPdUFPFEGWlOUEbsWU1Gm7CLZrhU32mVZmbHmCVBLXLZbdlzL8j/Ljk/3UrhXiR5okg2v0nH16X22/QzZmNcFNUeTLKoyUVXPIt/tUNh03+++267l86FEF3ftVRFV1+pw4EPBCrUCppM+1CqvfC88z4lb1GMlWpa41noFdG0ZUlaWRCu54cqwPo+ozkAgpeb4NKgoLWlePaWlTAdolRb1QBU3xKwmVae8Ff2/7ksFOdOVrTw8X84xaqd0nhVUnijfcT0Yw1K9D6pK3/RCKRwFE0Rp166teW7Mk8Ff2ZEvD8uoyKfSpGvmelv0v+HapMECbasKeibHBPtwvZ6q07qiFllVfKLnIq7ruir2quBr/aD7ByaNaGtbtapWpyeIJrvVOM9osEv70zlnhvHaT2lcQT5VJpK17vhuh8IXHbaTiPvmsWiwJd2Hs+iwHV/Ko1SGqCzRw2giyuP08CpVfTZkhk+Disp01ypcVQBO27pu9iqjako+lLfu24rihuD41FXIw1GIUnlWcJRPKOCh+y38pQ6S6ftAeQO9UApH3gdR6tWrZ/5x1eXmxXFjTNMmTYK12FD4VJpSzRTd14/5ft2v9q+odXUyNVexkeq0rmgiKmXkGnvp9uGOT72q3PGlEkARVajUtb463Xt13nWOVKC4z6pjVIugHmgO69bVrouj86P5XaqabAv5iwAK4ijfVv4d/eacKN9giy+XVypfSfagqteUJsN5svvmk/AEgcrTog+V7kHUHTuyq6oGFV1D3wCKuOssvl+xrjSg/Etlnc8DWJxcl7euzhCe7NnxqatkOw/PxDkGopSuUw2giHqaKJ9Qb+nw/6R7HyRL3/RCKTBFxcWlEz6YVJor2/yhccLl4EOPLP3kk/nBltk3cdKH9n1HPz0mWINs0PmNXmu39LvsytIffvgh2HL9tro2cbSt/ie6H7fcedfAYMv13HWOvpeUVeBLTzzp1Ar70N9aHxa3XXiJO14di16LS19lFanSA/7StdJ+tGi9XnfiPnP0/dx7xS1xn9u9f9xnlWT7i55jd37dEvd+cftLdI2R/5KlXy3u2vpuh9onLt+P5g2Jyobwdi7vjeY7icTlNdH/jUuXcWkxenyJ8kv4SaUcddvGlSeOto/bj5ZoOSraj/an1+Oud1y6iHv/ROlWS9z2br+5Km/jzkWY2z7VuooWdx6TbRd+/7jtkl1jIB3hez1ucfdVXJ6U7B4Obxdekt0HidK32zZ6jyN/1VEQZfHSEtOpY4cgrFKz1GUwqm7dTcxll15izj+3j9loo+x0llG0XZOOqSXA0fhpn1Z7AACQOWqdU+t4tAeB61Wn3izqbQcAAJBreTecp22b1ubN118xF5x/TtYCKKJAyajHH60w9lp/E0ABAKBmaf6RuK+idV8tDAAAkC9yHkRp3qyp/enmPnlp/HMJ574AAAC1j+YfiZsjYvgjI+36dL7mGAAAIBtyPpxn2vQZ5q233jbdunWt1AIFAAA2DG5ITxjDbAEAQL7JeRAFAAAAAACgEOT9VxwDAAAAAADkA4IoAAAAAAAAHgiiAAAAAAAAeCCIAgAAAAAA4IEgCgAAAAAAgAeCKAAAAAAAAB4IogAAAAAAAHggiAIAAAAAAOCBIAoAAAAAAIAHgigAAAAAAAAeCKIAAAAAAAB4qFNUXFy6eGmJ6dSxQ7DKmJWrVgW/AQAAAAAAQOiJAgAAAAAA4IEgCgAAAAAAgAeCKAAAAAAAAB4IogAAAAAAAHggiAIAAAAAAOCBIAoAAAAAAIAHgigAAAAAAAAeCKIAAAAAAAB4IIgCAAAAAADggSAKAAAAAACAB4IoAAAAAAAAHgiiAAAAAAAAeCCIAgAAAAAA4CHnQZSvvvrajBgx0hR/9lmwBgAAAAAAIP/kPIjS66w+pv/Nt5muhx5pBg8ZatauXRu8AgAAAAAAkD9yHkSZN+8T+3PNmp/NHXfcbY49/iRT9Okiu64mjR07zrTYuZUN6qxYsSJYCwAAAAAAsE7ezYkya9Zsc9jhR5tBgx+qsV4pCto89PDw4C8AAAAAAIDK8nJiWfVKufOugea4E3qahQuLgrXZM378S6Zduzbmpv7XBWsAAAAAAAAqyssgijNzxkxzxFHHZ3WulCkfTTUvv/yq6dXrdLP5ZpsFawEAAAAAACrK6yCKrF69unyulEx/g4/mPrnv/sHmr2f3Ms2aNgnWAgAAAAAAVJb3QRRHc6VcfMnlwV+ZMWHCO/bnfvvta38CAAAAAAAkUjBBFFm69Mvgt+pzk8mef97fTP369YO1AAAAAAAA8QomiNK6TWvzxOMjgr+q58cffzTDh48whxxykNlrzz2CtQAAAAAAAInVKSouLl28tMR06tghWGXMylWrgt+yr8XOrYLf4tWrV89ccMF5pvfZvcxGG2Um5qNeKH37XmLmzJ0XrKmsU6d9zN133kYvFQAAAAAAYOV1EEW9T+647WbTvHmzYE12jR07zox57nmCJwAAAAAAoJK8HM5Tt+4mpl+/i8zTTz5WYwEUAAAAAACAxIz5fw3fwv+pWlFzAAAAAElFTkSuQmCC;movable=0;resizable=0;rotatable=0;deletable=0;editable=0;locked=1;connectable=0;" vertex="1" parent="1">
          <mxGeometry x="1436" y="554" width="330" height="72.27" as="geometry" />
        </mxCell>
        <mxCell id="Rvu3dcxqjJlxaJkFsOzf-82" style="edgeStyle=none;curved=1;rounded=0;orthogonalLoop=1;jettySize=auto;html=1;fontSize=12;startSize=8;endSize=8;" edge="1" parent="1" source="Rvu3dcxqjJlxaJkFsOzf-85">
          <mxGeometry relative="1" as="geometry">
            <mxPoint x="565.8889567057295" y="733.5555216471355" as="targetPoint" />
            <Array as="points">
              <mxPoint x="368" y="657" />
            </Array>
          </mxGeometry>
        </mxCell>
        <mxCell id="Rvu3dcxqjJlxaJkFsOzf-83" value="Network access&amp;nbsp;analyzer" style="sketch=0;outlineConnect=0;fontColor=#232F3E;gradientColor=none;fillColor=#8C4FFF;strokeColor=none;dashed=0;verticalLabelPosition=bottom;verticalAlign=top;align=center;html=1;fontSize=12;fontStyle=0;aspect=fixed;pointerEvents=1;shape=mxgraph.aws4.vpc_network_access_analyzer;" vertex="1" parent="1">
          <mxGeometry x="70" y="624" width="77" height="78" as="geometry" />
        </mxCell>
        <mxCell id="Rvu3dcxqjJlxaJkFsOzf-84" value="" style="edgeStyle=none;curved=1;rounded=0;orthogonalLoop=1;jettySize=auto;html=1;fontSize=12;startSize=8;endSize=8;" edge="1" parent="1" source="Rvu3dcxqjJlxaJkFsOzf-83" target="Rvu3dcxqjJlxaJkFsOzf-85">
          <mxGeometry relative="1" as="geometry">
            <mxPoint x="565.8889567057295" y="733.5555216471355" as="targetPoint" />
            <mxPoint x="147" y="662" as="sourcePoint" />
            <Array as="points" />
          </mxGeometry>
        </mxCell>
        <mxCell id="Rvu3dcxqjJlxaJkFsOzf-85" value="&lt;b&gt;Scope:&amp;nbsp;detect all internet connection&amp;nbsp;from &lt;br&gt;instances&amp;nbsp;in virginia&amp;nbsp;to internet gateway&lt;/b&gt;" style="text;html=1;align=center;verticalAlign=middle;resizable=0;points=[];autosize=1;strokeColor=none;fillColor=none;fontSize=16;" vertex="1" parent="1">
          <mxGeometry x="168" y="733" width="338" height="50" as="geometry" />
        </mxCell>
      </root>
    </mxGraphModel>
  </diagram>
</mxfile>
